<svg width="50" height="57" viewBox="0 0 50 57" fill="none" xmlns="http://www.w3.org/2000/svg">
<path d="M46.2086 52.3697C46.2086 52.1328 35.545 38.3887 33.6493 29.8579L33.1754 28.4361L33.4123 26.7773C34.3602 18.4835 45.9716 4.73938 45.9716 4.73938L50 3.8147e-05L44.5498 3.0806C44.0758 3.31757 31.5166 10.1896 26.0664 18.9574L22.5119 15.4029C21.327 14.2181 19.6682 13.9811 18.2464 14.929L1.18484 26.5403C0.473934 27.0143 0 27.7252 0 28.673C0 29.6209 0.473934 30.3318 1.18484 30.8057L18.2464 42.4171C19.4312 43.365 21.09 43.128 22.2749 41.9432L26.0664 38.1517C31.5166 46.9195 44.0758 53.7915 44.5498 54.0285L49.5261 56.6351L46.2086 52.3697Z" fill="white"/>
</svg>
