<svg width="50" height="57" viewBox="0 0 50 57" fill="none" xmlns="http://www.w3.org/2000/svg">
<path d="M3.79145 4.2654C3.79145 4.50237 14.455 18.2465 16.3507 26.7773L16.8246 28.1991L16.5877 29.8578C15.6398 38.1517 4.02843 51.8958 4.02843 51.8958L0 56.6351L5.45025 53.5545C5.92418 53.3176 18.4834 46.4455 23.9336 37.6777L27.4881 41.2322C28.673 42.4171 30.3318 42.654 31.7536 41.7062L48.8152 30.0948C49.5261 29.6209 50 28.91 50 27.9621C50 27.0142 49.5261 26.3033 48.8152 25.8294L31.7536 14.218C30.5688 13.2701 28.91 13.5071 27.7251 14.692L23.9336 18.4834C18.4834 9.71564 5.92418 2.8436 5.45025 2.60663L0.473927 0L3.79145 4.2654Z" fill="white"/>
</svg>
