<svg width="263" height="51" viewBox="0 0 263 51" fill="none" xmlns="http://www.w3.org/2000/svg">
<path d="M156.543 6.18335C156.88 6.18335 157.139 6.18335 157.385 6.18335C183.389 6.18335 209.379 6.18335 235.382 6.18335C236.263 6.18335 236.263 6.18335 236.263 7.06294C236.263 19.9023 236.263 32.7548 236.263 45.5941C236.263 46.4606 236.263 46.4606 235.447 46.4606C214.483 46.4606 193.507 46.4606 172.544 46.4606C165.159 46.4606 158.927 41.6557 157.139 34.4746C156.712 32.7548 156.582 30.9299 156.569 29.1576C156.504 21.7534 156.543 14.3622 156.543 6.97104C156.543 6.73473 156.543 6.49843 156.543 6.18335ZM172.998 42.8897C173.049 42.614 173.114 42.404 173.14 42.1939C173.671 38.2423 174.254 34.2908 174.708 30.3129C174.915 28.5275 175.382 26.9784 177.001 26.02C177.584 25.6787 178.167 25.3373 178.789 25.101C182.171 23.8276 185.682 23.6307 189.245 23.8276C189.608 23.8539 189.97 23.8801 190.346 23.9195C190.683 23.9589 191.007 24.0114 191.331 24.0508C188.467 23.3025 185.578 22.9086 182.624 22.9611C180.525 23.0005 178.426 23.1843 176.457 23.9589C174.63 24.6809 172.726 25.3899 172.466 27.8054C171.443 27.8973 169.629 27.2278 169.072 26.7552C168.178 25.9938 168.035 24.891 168.865 24.077C169.409 23.5388 170.083 23.1056 170.782 22.7774C172.441 21.9897 174.254 21.7402 176.055 21.5696C180.072 21.202 184.075 21.4645 188.053 22.0159C189.037 22.1472 190.022 22.3179 191.007 22.4754C189.737 22.0553 188.441 21.7008 187.133 21.4777C182.78 20.7294 178.4 20.3618 174.008 20.9394C172.272 21.1626 170.562 21.517 169.007 22.3704C167.763 23.0662 166.779 23.9195 167.258 25.7181C166.766 25.5868 166.364 25.508 165.988 25.3767C164.058 24.7072 163.669 22.9874 165.094 21.4908C166.092 20.4405 167.362 19.9154 168.709 19.5741C171.572 18.8389 174.488 18.7207 177.442 18.8914C181.199 19.1015 184.891 19.6791 188.545 20.5718C189.335 20.7687 190.113 20.9657 190.903 21.1626C190.838 21.0313 190.748 20.9788 190.644 20.9394C185.034 19.0227 179.281 17.8674 173.335 18.0118C171.08 18.0643 168.865 18.3138 166.727 19.0883C164.9 19.7579 163.229 20.6506 162.905 22.8955C161.816 22.738 161.039 21.8846 160.974 20.8344C160.897 19.4428 161.674 18.5763 162.723 17.9199C164.2 16.9878 165.872 16.6465 167.569 16.4233C170.173 16.082 172.764 16.1608 175.382 16.3971C179.385 16.7647 183.311 17.5655 187.159 18.7339C188.636 19.1802 190.087 19.7054 191.551 20.1911C191.447 20.0861 191.331 20.0073 191.201 19.9548C183.402 16.4102 175.265 14.7823 166.714 15.7013C164.991 15.8851 163.319 16.292 161.791 17.1716C160.728 17.7886 160.029 18.6945 160.016 19.9548C159.99 23.3287 159.977 26.6895 160.016 30.0635C160.041 32.0065 160.456 33.8838 161.376 35.6167C163.864 40.2772 167.737 42.6534 172.998 42.8897ZM193.805 42.8897C193.805 38.8462 193.805 34.8159 193.805 30.733C193.015 30.838 192.251 30.9693 191.486 31.035C188.001 31.3763 184.516 31.4026 181.043 30.9168C180.668 30.8643 180.435 30.9431 180.227 31.3369C178.737 34.1726 177.208 36.982 175.706 39.8046C175.161 40.8155 174.63 41.8263 174.073 42.8897C180.694 42.8897 187.237 42.8897 193.805 42.8897ZM160.054 15.9244C162.05 14.6248 163.358 14.1653 165.6 13.9158C168.489 13.5876 171.352 13.7058 174.229 14.0471C179.476 14.6904 184.555 16.0163 189.439 18.0643C190.929 18.6814 192.354 19.4428 193.805 20.1255C193.805 16.699 193.805 13.2594 193.805 9.81985C182.533 9.81985 171.313 9.81985 160.067 9.81985C160.054 11.8678 160.054 13.8765 160.054 15.9244ZM209.184 41.3931C209.962 39.6208 210.674 37.9929 211.387 36.3519C210.752 36.1418 210.454 36.3387 210.26 36.8639C209.975 37.6384 209.612 38.3867 209.223 39.2926C208.783 38.1373 208.407 37.1658 207.953 36.0105C207.487 37.1658 207.085 38.1504 206.632 39.2795C206.256 38.3736 205.919 37.6516 205.66 36.8901C205.466 36.3125 205.155 36.1287 204.533 36.3519C205.207 37.9798 205.893 39.6077 206.632 41.3931C207.098 40.2247 207.487 39.2532 207.928 38.1373C208.381 39.2926 208.757 40.2641 209.184 41.3931ZM207.811 21.3726C209.184 22.5936 210.428 23.7095 211.75 24.891C211.75 23.0268 211.75 21.3333 211.75 19.6135C211.465 19.6135 211.206 19.6135 210.895 19.6135C210.895 20.7162 210.895 21.7927 210.895 23.0268C209.534 21.819 208.303 20.7031 206.969 19.5084C206.969 21.3726 206.969 23.0793 206.969 24.7991C207.267 24.7991 207.513 24.7991 207.798 24.7991C207.811 23.6963 207.811 22.6329 207.811 21.3726ZM224.278 36.1681C224.278 37.8747 224.278 39.5945 224.278 41.3931C224.978 41.3537 225.652 41.3537 226.299 41.2749C227.556 41.1174 228.463 40.054 228.502 38.7675C228.528 37.5072 227.725 36.3913 226.481 36.1943C225.768 36.0631 225.03 36.1681 224.278 36.1681ZM199.143 27.7661C199.143 29.0001 199.143 30.1029 199.143 31.2056C199.143 33.3455 199.143 33.3455 201.242 33.0042C202.434 32.8073 203.315 31.8489 203.393 30.6543C203.484 29.3283 202.784 28.2387 201.527 27.963C200.802 27.8054 200.011 27.8317 199.143 27.7661ZM227.491 31.2582C226.157 30.0635 224.926 28.9476 223.631 27.7923C223.631 29.6696 223.631 31.3763 223.631 33.083C223.916 33.083 224.149 33.083 224.447 33.083C224.447 31.9671 224.447 30.8906 224.447 29.6434C225.807 30.8643 227.051 31.9671 228.372 33.1486C228.372 31.2844 228.372 29.5909 228.372 27.8842C228.074 27.8842 227.815 27.8842 227.491 27.8842C227.491 29.0001 227.491 30.0635 227.491 31.2582ZM217.878 13.1544C219.238 14.3622 220.482 15.4518 221.804 16.6202C221.804 14.7823 221.804 13.0888 221.804 11.3558C221.519 11.3558 221.285 11.3558 220.949 11.3558C220.949 12.4717 220.949 13.5483 220.949 14.756C219.575 13.5483 218.318 12.4455 217.01 11.2902C217.01 13.1282 217.01 14.8348 217.01 16.5283C217.671 16.7121 217.943 16.5415 217.891 15.8457C217.839 15.0055 217.878 14.1653 217.878 13.1544ZM221.765 30.3654C221.026 30.3654 220.327 30.3654 219.64 30.3654C219.381 31.5995 220.469 30.8512 220.78 31.2188C220.56 31.8752 220.016 32.2953 219.407 32.2953C218.707 32.2953 217.891 31.6914 217.684 31.0087C217.45 30.2604 217.697 29.3808 218.344 28.9738C218.655 28.7769 219.083 28.5931 219.42 28.6456C219.977 28.7375 220.508 29.0132 221.143 29.2495C221.208 29.197 221.376 29.0395 221.532 28.882C220.702 27.7923 219.329 27.4772 218.163 28.0943C216.997 28.7113 216.453 30.0766 216.893 31.3238C217.308 32.5185 218.565 33.2405 219.834 33.0173C221.091 32.8204 221.791 31.8883 221.765 30.3654ZM206.489 16.594C207.966 16.594 209.12 15.4387 209.107 13.9552C209.107 12.5111 207.941 11.3165 206.528 11.3165C205.051 11.3033 203.898 12.4717 203.898 13.9552C203.898 15.4781 204.987 16.594 206.489 16.594ZM227.517 14.6116C227.297 15.3993 226.844 15.7669 226.157 15.7932C225.418 15.8063 224.654 15.2418 224.447 14.5329C224.214 13.7452 224.499 12.8918 225.146 12.4455C225.95 11.9072 226.688 12.0385 227.621 12.8262C227.841 12.6818 228.049 12.5374 228.256 12.4061C227.258 11.2377 225.859 11.0014 224.719 11.7366C223.631 12.4455 223.216 13.8896 223.76 15.0842C224.304 16.2789 225.678 16.8828 226.908 16.4758C228.01 16.1082 228.632 15.058 228.424 13.8502C227.751 13.8502 227.064 13.8502 226.338 13.8502C226.351 14.1259 226.364 14.3491 226.377 14.6116C226.779 14.6116 227.129 14.6116 227.517 14.6116ZM221 39.1876C221.104 39.1088 221.156 39.0694 221.208 39.0432C221.959 38.5968 222.231 38.006 222.05 37.2446C221.907 36.6407 221.363 36.1943 220.599 36.1418C220.093 36.1024 219.575 36.1287 219.005 36.1287C218.992 36.3781 218.966 36.5882 218.966 36.7982C218.966 38.0848 218.966 39.3845 218.966 40.671C218.966 41.4194 219.044 41.4587 219.899 41.2487C219.899 40.6185 219.899 39.9753 219.899 39.1613C220.391 39.8308 220.819 40.3428 221.156 40.8942C221.506 41.4587 221.946 41.4456 222.542 41.2749C222.011 40.5529 221.519 39.8834 221 39.1876ZM210.869 11.3427C210.869 12.5111 210.856 13.6008 210.869 14.6904C210.882 15.6881 211.594 16.4233 212.683 16.5677C213.823 16.7253 215.053 16.1345 215.157 15.1761C215.287 13.9158 215.196 12.6293 215.196 11.3558C214.911 11.3558 214.613 11.3558 214.276 11.3558C214.276 12.4586 214.263 13.4957 214.276 14.546C214.276 15.1893 213.991 15.5831 213.382 15.7407C212.501 15.9638 211.84 15.4387 211.827 14.5066C211.814 13.4695 211.827 12.4192 211.827 11.3427C211.478 11.3427 211.218 11.3427 210.869 11.3427ZM204.093 41.2618C203.212 39.5158 202.343 37.8222 201.424 36.0105C200.465 37.8354 199.571 39.542 198.69 41.2356C198.742 41.3143 198.806 41.3931 198.858 41.4587C199.169 41.3143 199.662 41.2487 199.752 41.0124C200.05 40.2772 200.543 40.054 201.268 40.1722C201.501 40.2116 201.747 40.1984 201.981 40.1722C202.408 40.1197 202.693 40.2641 202.81 40.6842C202.991 41.3143 203.38 41.5112 204.093 41.2618ZM212.125 41.2749C212.67 41.4062 213.11 41.485 213.278 40.9205C213.486 40.2509 213.952 40.0934 214.574 40.1722C214.807 40.1984 215.053 40.1984 215.287 40.1722C215.792 40.1065 216.116 40.2772 216.258 40.7892C216.44 41.4194 216.867 41.4719 217.476 41.2487C216.608 39.5158 215.766 37.8354 214.846 36.0105C213.9 37.8485 213.019 39.542 212.125 41.2749ZM207.643 32.2821C207.072 32.2821 206.515 32.3084 205.971 32.269C205.816 32.2559 205.557 32.0852 205.544 31.9539C205.492 31.5338 205.518 31.1006 205.518 30.6149C206.282 30.6149 206.943 30.6149 207.63 30.6149C207.63 30.326 207.63 30.1029 207.63 29.8009C206.904 29.8009 206.23 29.8009 205.57 29.8009C205.57 29.3808 205.57 29.0526 205.57 28.6456C206.308 28.6456 206.982 28.6456 207.668 28.6456C207.668 28.3437 207.668 28.1205 207.668 27.8973C206.645 27.8973 205.673 27.8973 204.65 27.8973C204.65 29.5252 204.663 31.1006 204.65 32.6629C204.65 33.0173 204.805 33.1092 205.116 33.1092C205.79 33.0961 206.451 33.083 207.124 33.1092C207.668 33.1355 207.824 32.8992 207.643 32.2821ZM212.553 28.7375C212.087 27.9236 211.335 27.6348 210.493 27.9105C209.949 28.0811 209.521 28.3962 209.456 29.0264C209.379 29.6959 209.754 30.0897 210.286 30.3654C210.61 30.5361 211.011 30.5886 211.283 30.8118C211.516 30.9956 211.776 31.35 211.776 31.6126C211.776 31.8358 211.4 32.2034 211.18 32.2165C210.882 32.2428 210.376 32.059 210.273 31.8358C209.975 31.14 209.638 31.4157 209.184 31.6257C209.275 31.862 209.327 32.0721 209.431 32.2559C209.793 32.9254 210.545 33.2011 211.387 33.0305C212.138 32.8729 212.657 32.3347 212.734 31.6389C212.812 30.9037 212.449 30.3786 211.607 30.011C211.309 29.8797 210.985 29.8009 210.713 29.6303C210.558 29.5384 210.376 29.2627 210.415 29.1314C210.467 28.9476 210.713 28.685 210.869 28.6982C211.244 28.7113 211.607 28.8688 212.112 29.0001C212.151 28.9738 212.333 28.8688 212.553 28.7375ZM200.063 24.8253C200.063 24.1164 200.063 23.4469 200.063 22.8167C200.439 22.7511 200.75 22.7248 201.035 22.6592C201.864 22.4623 202.279 21.8846 202.24 21.0444C202.201 20.283 201.683 19.6922 200.892 19.6266C200.348 19.5741 199.778 19.6135 199.195 19.6135C199.195 21.3726 199.195 23.0924 199.195 24.8253C199.48 24.8253 199.713 24.8253 200.063 24.8253ZM198.677 11.3952C199.182 12.2354 199.597 13.0494 200.115 13.7977C200.711 14.6641 200.206 15.6356 200.504 16.5546C200.633 16.5677 200.75 16.594 200.879 16.594C201.009 16.594 201.126 16.5677 201.437 16.5283C200.737 14.4278 202.24 13.0231 203.069 11.3952C202.395 11.2114 201.968 11.3558 201.683 11.9729C201.475 12.4324 201.164 12.8393 200.866 13.3382C200.568 12.8262 200.258 12.4192 200.063 11.9729C199.791 11.3427 199.364 11.1852 198.677 11.3952ZM204.663 24.8253C204.663 23.0399 204.663 21.3333 204.663 19.6266C204.365 19.6266 204.118 19.6266 203.859 19.6266C203.859 21.3858 203.859 23.0924 203.859 24.8253C204.157 24.8253 204.391 24.8253 204.663 24.8253ZM214.393 32.9911C214.445 33.0567 214.496 33.1223 214.548 33.188C214.768 33.0567 215.196 32.9254 215.196 32.781C215.248 31.1531 215.222 29.5252 215.222 27.8711C214.911 27.8711 214.665 27.8711 214.393 27.8711C214.393 29.604 214.393 31.2975 214.393 32.9911Z" fill="white"/>
<path d="M225.171 40.4479C225.171 39.2664 225.171 38.1505 225.171 37.0215C225.962 36.7852 226.752 37.0084 227.206 37.586C227.633 38.1374 227.711 38.9513 227.361 39.5552C226.882 40.3954 226.13 40.5792 225.171 40.4479Z" fill="white"/>
<path d="M200.075 32.2559C200.075 31.035 200.075 29.8928 200.075 28.7113C200.93 28.5931 201.694 28.7113 202.199 29.4596C202.614 30.0635 202.614 30.7461 202.251 31.3632C201.772 32.1771 200.982 32.3084 200.075 32.2559Z" fill="white"/>
<path d="M206.462 15.7932C205.477 15.78 204.7 14.9661 204.713 13.929C204.726 12.905 205.529 12.1173 206.527 12.1304C207.512 12.1435 208.289 12.9706 208.276 13.9946C208.263 15.0055 207.473 15.7932 206.462 15.7932Z" fill="white"/>
<path d="M219.898 38.61C219.898 37.8879 219.898 37.4416 219.898 36.7852C220.351 36.9689 220.766 37.0608 221.077 37.284C221.207 37.389 221.207 37.9273 221.077 38.0323C220.779 38.2818 220.377 38.3868 219.898 38.61Z" fill="white"/>
<path d="M202.148 39.3845C201.591 39.3845 201.163 39.3845 200.645 39.3845C200.904 38.8725 201.124 38.4261 201.409 37.8748C201.669 38.4261 201.889 38.8594 202.148 39.3845Z" fill="white"/>
<path d="M214.067 39.3714C214.339 38.8462 214.573 38.413 214.845 37.901C215.104 38.4393 215.324 38.8725 215.57 39.3714C215.052 39.3714 214.612 39.3714 214.067 39.3714Z" fill="white"/>
<path d="M200.075 21.9241C200.075 21.4121 200.075 20.9395 200.075 20.48C200.865 20.3356 201.306 20.5456 201.383 21.0576C201.461 21.609 201.072 21.8847 200.075 21.9241Z" fill="white"/>
<path d="M250.007 6.89619V9.3936H253.736C253.786 9.9167 253.854 10.4736 253.955 11.0473L252.74 10.8279C251.88 15.114 249.905 18.3201 246.497 20.0076C247.138 20.4632 248.285 21.4925 248.741 22.0156C251.458 20.3451 253.449 17.6789 254.731 14.1522C255.693 17.0883 257.482 20.0582 260.688 21.9819C261.11 21.3575 262.106 20.2607 262.662 19.822C256.638 16.3121 256.149 10.2204 256.149 6.89619H250.007ZM252.369 42.2908C252.42 42.0546 252.47 41.8015 252.521 41.5652H253.921V42.2908H252.369ZM252.909 38.5784H256.115V39.0509H252.909V38.5784ZM259.102 42.2908H256.081V41.5652H258.933V40.4178H256.081V40.0465H258.241V37.5829H250.901V40.0465H253.921V40.4178H250.04V41.5652H250.682C250.53 42.2739 250.361 42.9995 250.192 43.5395H253.921V44.147H256.081V43.5395H259.102V42.2908ZM255.879 36.0135H254.242L254.36 35.6086H255.879V36.0135ZM249.517 44.2989V33.7861H252.825C252.757 34.0224 252.69 34.2586 252.622 34.4948H250.935V35.6086H252.285L252.15 36.0135H250.108V37.2454H258.933V36.0135H257.87V34.4948H254.698L254.866 33.8705L254.158 33.7861H259.49V44.2989H249.517ZM247.222 31.5924V47.0494H249.517V46.4925H259.49V47.0494H261.886V31.5924H247.222Z" fill="white"/>
<path d="M0.0115642 6.18335C0.348425 6.18335 0.607549 6.18335 0.853717 6.18335C26.8568 6.18335 52.8469 6.18335 78.85 6.18335C79.7311 6.18335 79.7311 6.18335 79.7311 7.06294C79.7311 19.9023 79.7311 32.7548 79.7311 45.5941C79.7311 46.4606 79.7311 46.4606 78.9148 46.4606C57.9517 46.4606 36.9756 46.4606 16.0125 46.4606C8.62744 46.4606 2.3955 41.6557 0.607549 34.4746C0.179995 32.7548 0.0504328 30.9299 0.0374766 29.1576C-0.0273044 21.7534 0.0115642 14.3622 0.0115642 6.97104C0.0115642 6.73473 0.0115642 6.49843 0.0115642 6.18335ZM16.4659 42.8897C16.5178 42.614 16.5825 42.404 16.6085 42.1939C17.1397 38.2423 17.7227 34.2908 18.1762 30.3129C18.3835 28.5275 18.8499 26.9784 20.4694 26.02C21.0524 25.6787 21.6355 25.3373 22.2574 25.101C25.6389 23.8276 29.1501 23.6307 32.713 23.8276C33.0758 23.8539 33.4386 23.8801 33.8143 23.9195C34.1511 23.9589 34.4751 24.0114 34.799 24.0508C31.9356 23.3025 29.0464 22.9086 26.0924 22.9611C23.9935 23.0005 21.8946 23.1843 19.9252 23.9589C18.0984 24.6809 16.1939 25.3899 15.9347 27.8054C14.9112 27.8973 13.0973 27.2278 12.5402 26.7552C11.6462 25.9938 11.5037 24.891 12.3329 24.077C12.8771 23.5388 13.5508 23.1056 14.2504 22.7774C15.9088 21.9897 17.7227 21.7402 19.5236 21.5696C23.54 21.202 27.5435 21.4645 31.521 22.0159C32.5057 22.1472 33.4904 22.3179 34.4751 22.4754C33.2053 22.0553 31.9097 21.7008 30.6012 21.4777C26.2479 20.7294 21.8687 20.3618 17.4765 20.9394C15.7404 21.1626 14.0302 21.517 12.4754 22.3704C11.2316 23.0662 10.247 23.9195 10.7263 25.7181C10.234 25.5868 9.83236 25.508 9.45663 25.3767C7.52616 24.7072 7.13747 22.9874 8.56266 21.4908C9.56028 20.4405 10.83 19.9154 12.1774 19.5741C15.0408 18.8389 17.9559 18.7207 20.9099 18.8914C24.6672 19.1015 28.3597 19.6791 32.0134 20.5718C32.8037 20.7687 33.5811 20.9657 34.3714 21.1626C34.3066 21.0313 34.2159 20.9788 34.1123 20.9394C28.5022 19.0227 22.7497 17.8674 16.8028 18.0118C14.5484 18.0643 12.3329 18.3138 10.1951 19.0883C8.36831 19.7579 6.69696 20.6506 6.37306 22.8955C5.28474 22.738 4.50737 21.8846 4.44258 20.8344C4.36485 19.4428 5.14222 18.5763 6.19167 17.9199C7.66868 16.9878 9.34003 16.6465 11.0373 16.4233C13.6415 16.082 16.2327 16.1608 18.8499 16.3971C22.8533 16.7647 26.7791 17.5655 30.6271 18.7339C32.1041 19.1802 33.5552 19.7054 35.0192 20.1911C34.9156 20.0861 34.799 20.0073 34.6694 19.9548C26.8698 16.4102 18.7333 14.7823 10.1822 15.7013C8.45901 15.8851 6.78766 16.292 5.25882 17.1716C4.19642 17.7886 3.49678 18.6945 3.48383 19.9548C3.45791 23.3287 3.44496 26.6895 3.48383 30.0635C3.50974 32.0065 3.92434 33.8838 4.84423 35.6167C7.33182 40.2772 11.2057 42.6534 16.4659 42.8897ZM37.2736 42.8897C37.2736 38.8462 37.2736 34.8159 37.2736 30.733C36.4833 30.838 35.7188 30.9693 34.9544 31.035C31.4692 31.3763 27.984 31.4026 24.5117 30.9168C24.136 30.8643 23.9028 30.9431 23.6955 31.3369C22.2055 34.1726 20.6767 36.982 19.1738 39.8046C18.6296 40.8155 18.0984 41.8263 17.5413 42.8897C24.1619 42.8897 30.7048 42.8897 37.2736 42.8897ZM3.52269 15.9244C5.51795 14.6248 6.82653 14.1653 9.06795 13.9158C11.9572 13.5876 14.8205 13.7058 17.6968 14.0471C22.944 14.6904 28.0229 16.0163 32.9074 18.0643C34.3973 18.6814 35.8225 19.4428 37.2736 20.1255C37.2736 16.699 37.2736 13.2594 37.2736 9.81985C26.0017 9.81985 14.7816 9.81985 3.53565 9.81985C3.52269 11.8678 3.52269 13.8765 3.52269 15.9244ZM52.6526 41.3931C53.43 39.6208 54.1426 37.9929 54.8552 36.3519C54.2203 36.1418 53.9223 36.3387 53.728 36.8639C53.4429 37.6384 53.0802 38.3867 52.6915 39.2926C52.251 38.1373 51.8752 37.1658 51.4218 36.0105C50.9553 37.1658 50.5537 38.1504 50.1002 39.2795C49.7245 38.3736 49.3876 37.6516 49.1285 36.8901C48.9342 36.3125 48.6232 36.1287 48.0013 36.3519C48.675 37.9798 49.3617 39.6077 50.1002 41.3931C50.5667 40.2247 50.9553 39.2532 51.3959 38.1373C51.8493 39.2926 52.225 40.2641 52.6526 41.3931ZM51.2792 21.3726C52.6526 22.5936 53.8964 23.7095 55.2179 24.891C55.2179 23.0268 55.2179 21.3333 55.2179 19.6135C54.9329 19.6135 54.6738 19.6135 54.3628 19.6135C54.3628 20.7162 54.3628 21.7927 54.3628 23.0268C53.0024 21.819 51.7716 20.7031 50.4371 19.5084C50.4371 21.3726 50.4371 23.0793 50.4371 24.7991C50.7351 24.7991 50.9813 24.7991 51.2663 24.7991C51.2792 23.6963 51.2792 22.6329 51.2792 21.3726ZM67.7466 36.1681C67.7466 37.8747 67.7466 39.5945 67.7466 41.3931C68.4462 41.3537 69.1199 41.3537 69.7677 41.2749C71.0245 41.1174 71.9314 40.054 71.9703 38.7675C71.9962 37.5072 71.1929 36.3913 69.9491 36.1943C69.2365 36.0631 68.498 36.1681 67.7466 36.1681ZM42.6115 27.7661C42.6115 29.0001 42.6115 30.1029 42.6115 31.2056C42.6115 33.3455 42.6115 33.3455 44.7105 33.0042C45.9024 32.8073 46.7834 31.8489 46.8612 30.6543C46.9519 29.3283 46.2522 28.2387 44.9955 27.963C44.2699 27.8054 43.4796 27.8317 42.6115 27.7661ZM70.9597 31.2582C69.6252 30.0635 68.3944 28.9476 67.0988 27.7923C67.0988 29.6696 67.0988 31.3763 67.0988 33.083C67.3838 33.083 67.617 33.083 67.915 33.083C67.915 31.9671 67.915 30.8906 67.915 29.6434C69.2754 30.8643 70.5192 31.9671 71.8407 33.1486C71.8407 31.2844 71.8407 29.5909 71.8407 27.8842C71.5427 27.8842 71.2836 27.8842 70.9597 27.8842C70.9597 29.0001 70.9597 30.0635 70.9597 31.2582ZM61.3462 13.1544C62.7066 14.3622 63.9504 15.4518 65.2719 16.6202C65.2719 14.7823 65.2719 13.0888 65.2719 11.3558C64.9869 11.3558 64.7537 11.3558 64.4168 11.3558C64.4168 12.4717 64.4168 13.5483 64.4168 14.756C63.0435 13.5483 61.7867 12.4455 60.4781 11.2902C60.4781 13.1282 60.4781 14.8348 60.4781 16.5283C61.1389 16.7121 61.411 16.5415 61.3592 15.8457C61.3073 15.0055 61.3462 14.1653 61.3462 13.1544ZM65.2331 30.3654C64.4946 30.3654 63.7949 30.3654 63.1083 30.3654C62.8491 31.5995 63.9375 30.8512 64.2484 31.2188C64.0281 31.8752 63.484 32.2953 62.875 32.2953C62.1754 32.2953 61.3592 31.6914 61.1519 31.0087C60.9187 30.2604 61.1648 29.3808 61.8126 28.9738C62.1236 28.7769 62.5511 28.5931 62.888 28.6456C63.4451 28.7375 63.9763 29.0132 64.6112 29.2495C64.676 29.197 64.8444 29.0395 64.9999 28.882C64.1707 27.7923 62.7973 27.4772 61.6312 28.0943C60.4652 28.7113 59.921 30.0766 60.3615 31.3238C60.7761 32.5185 62.0329 33.2405 63.3026 33.0173C64.5593 32.8204 65.259 31.8883 65.2331 30.3654ZM49.9577 16.594C51.4347 16.594 52.5878 15.4387 52.5749 13.9552C52.5749 12.5111 51.4088 11.3165 49.9966 11.3165C48.5196 11.3033 47.3665 12.4717 47.3665 13.9552C47.3665 15.4781 48.4548 16.594 49.9577 16.594ZM70.9856 14.6116C70.7654 15.3993 70.3119 15.7669 69.6252 15.7932C68.8867 15.8063 68.1223 15.2418 67.915 14.5329C67.6818 13.7452 67.9668 12.8918 68.6146 12.4455C69.4179 11.9072 70.1564 12.0385 71.0893 12.8262C71.3095 12.6818 71.5168 12.5374 71.7241 12.4061C70.7265 11.2377 69.3272 11.0014 68.1871 11.7366C67.0988 12.4455 66.6842 13.8896 67.2283 15.0842C67.7725 16.2789 69.1458 16.8828 70.3767 16.4758C71.478 16.1082 72.0999 15.058 71.8926 13.8502C71.2188 13.8502 70.5322 13.8502 69.8066 13.8502C69.8196 14.1259 69.8325 14.3491 69.8455 14.6116C70.2471 14.6116 70.5969 14.6116 70.9856 14.6116ZM64.4687 39.1876C64.5723 39.1088 64.6241 39.0694 64.676 39.0432C65.4274 38.5968 65.6995 38.006 65.5181 37.2446C65.3756 36.6407 64.8314 36.1943 64.067 36.1418C63.5617 36.1024 63.0435 36.1287 62.4734 36.1287C62.4604 36.3781 62.4345 36.5882 62.4345 36.7982C62.4345 38.0848 62.4345 39.3845 62.4345 40.671C62.4345 41.4194 62.5123 41.4587 63.3674 41.2487C63.3674 40.6185 63.3674 39.9753 63.3674 39.1613C63.8597 39.8308 64.2873 40.3428 64.6241 40.8942C64.9739 41.4587 65.4145 41.4456 66.0104 41.2749C65.4792 40.5529 64.9869 39.8834 64.4687 39.1876ZM54.3369 11.3427C54.3369 12.5111 54.324 13.6008 54.3369 14.6904C54.3499 15.6881 55.0625 16.4233 56.1508 16.5677C57.2909 16.7253 58.5218 16.1345 58.6254 15.1761C58.755 13.9158 58.6643 12.6293 58.6643 11.3558C58.3792 11.3558 58.0812 11.3558 57.7444 11.3558C57.7444 12.4586 57.7314 13.4957 57.7444 14.546C57.7444 15.1893 57.4594 15.5831 56.8504 15.7407C55.9694 15.9638 55.3086 15.4387 55.2957 14.5066C55.2827 13.4695 55.2957 12.4192 55.2957 11.3427C54.9458 11.3427 54.6867 11.3427 54.3369 11.3427ZM47.5608 41.2618C46.6798 39.5158 45.8117 37.8222 44.8918 36.0105C43.9331 37.8354 43.0391 39.542 42.1581 41.2356C42.2099 41.3143 42.2747 41.3931 42.3265 41.4587C42.6375 41.3143 43.1298 41.2487 43.2205 41.0124C43.5185 40.2772 44.0108 40.054 44.7364 40.1722C44.9696 40.2116 45.2157 40.1984 45.449 40.1722C45.8765 40.1197 46.1615 40.2641 46.2782 40.6842C46.4595 41.3143 46.8482 41.5112 47.5608 41.2618ZM55.5937 41.2749C56.1378 41.4062 56.5783 41.485 56.7468 40.9205C56.9541 40.2509 57.4205 40.0934 58.0424 40.1722C58.2756 40.1984 58.5218 40.1984 58.755 40.1722C59.2603 40.1065 59.5842 40.2772 59.7267 40.7892C59.9081 41.4194 60.3356 41.4719 60.9446 41.2487C60.0765 39.5158 59.2344 37.8354 58.3145 36.0105C57.3687 37.8485 56.4876 39.542 55.5937 41.2749ZM51.1108 32.2821C50.5407 32.2821 49.9836 32.3084 49.4395 32.269C49.284 32.2559 49.0249 32.0852 49.0119 31.9539C48.9601 31.5338 48.986 31.1006 48.986 30.6149C49.7504 30.6149 50.4112 30.6149 51.0979 30.6149C51.0979 30.326 51.0979 30.1029 51.0979 29.8009C50.3723 29.8009 49.6986 29.8009 49.0378 29.8009C49.0378 29.3808 49.0378 29.0526 49.0378 28.6456C49.7763 28.6456 50.4501 28.6456 51.1367 28.6456C51.1367 28.3437 51.1367 28.1205 51.1367 27.8973C50.1132 27.8973 49.1415 27.8973 48.1179 27.8973C48.1179 29.5252 48.1309 31.1006 48.1179 32.6629C48.1179 33.0173 48.2734 33.1092 48.5844 33.1092C49.2581 33.0961 49.9188 33.083 50.5926 33.1092C51.1367 33.1355 51.2922 32.8992 51.1108 32.2821ZM56.0212 28.7375C55.5548 27.9236 54.8033 27.6348 53.9612 27.9105C53.417 28.0811 52.9895 28.3962 52.9247 29.0264C52.8469 29.6959 53.2227 30.0897 53.7539 30.3654C54.0778 30.5361 54.4794 30.5886 54.7515 30.8118C54.9847 30.9956 55.2438 31.35 55.2438 31.6126C55.2438 31.8358 54.8681 32.2034 54.6479 32.2165C54.3499 32.2428 53.8446 32.059 53.7409 31.8358C53.4429 31.14 53.1061 31.4157 52.6526 31.6257C52.7433 31.862 52.7951 32.0721 52.8988 32.2559C53.2615 32.9254 54.013 33.2011 54.8552 33.0305C55.6066 32.8729 56.1249 32.3347 56.2026 31.6389C56.2803 30.9037 55.9176 30.3786 55.0754 30.011C54.7774 29.8797 54.4535 29.8009 54.1814 29.6303C54.026 29.5384 53.8446 29.2627 53.8834 29.1314C53.9353 28.9476 54.1814 28.685 54.3369 28.6982C54.7126 28.7113 55.0754 28.8688 55.5807 29.0001C55.6196 28.9738 55.801 28.8688 56.0212 28.7375ZM43.5314 24.8253C43.5314 24.1164 43.5314 23.4469 43.5314 22.8167C43.9072 22.7511 44.2181 22.7248 44.5032 22.6592C45.3323 22.4623 45.7469 21.8846 45.7081 21.0444C45.6692 20.283 45.151 19.6922 44.3606 19.6266C43.8165 19.5741 43.2464 19.6135 42.6634 19.6135C42.6634 21.3726 42.6634 23.0924 42.6634 24.8253C42.9484 24.8253 43.1816 24.8253 43.5314 24.8253ZM42.1451 11.3952C42.6504 12.2354 43.065 13.0494 43.5833 13.7977C44.1792 14.6641 43.674 15.6356 43.9719 16.5546C44.1015 16.5677 44.2181 16.594 44.3477 16.594C44.4772 16.594 44.5938 16.5677 44.9048 16.5283C44.2052 14.4278 45.7081 13.0231 46.5373 11.3952C45.8636 11.2114 45.436 11.3558 45.151 11.9729C44.9437 12.4324 44.6327 12.8393 44.3347 13.3382C44.0367 12.8262 43.7258 12.4192 43.5314 11.9729C43.2594 11.3427 42.8318 11.1852 42.1451 11.3952ZM48.1309 24.8253C48.1309 23.0399 48.1309 21.3333 48.1309 19.6266C47.8329 19.6266 47.5867 19.6266 47.3276 19.6266C47.3276 21.3858 47.3276 23.0924 47.3276 24.8253C47.6256 24.8253 47.8588 24.8253 48.1309 24.8253ZM57.861 32.9911C57.9128 33.0567 57.9646 33.1223 58.0165 33.188C58.2367 33.0567 58.6643 32.9254 58.6643 32.781C58.7161 31.1531 58.6902 29.5252 58.6902 27.8711C58.3792 27.8711 58.1331 27.8711 57.861 27.8711C57.861 29.604 57.861 31.2975 57.861 32.9911Z" fill="white"/>
<path d="M68.6396 40.4479C68.6396 39.2664 68.6396 38.1505 68.6396 37.0215C69.43 36.7852 70.2203 37.0084 70.6738 37.586C71.1013 38.1374 71.1791 38.9513 70.8292 39.5552C70.3499 40.3954 69.5984 40.5792 68.6396 40.4479Z" fill="white"/>
<path d="M43.543 32.2559C43.543 31.035 43.543 29.8928 43.543 28.7113C44.3981 28.5931 45.1625 28.7113 45.6677 29.4596C46.0823 30.0635 46.0823 30.7461 45.7196 31.3632C45.2402 32.1771 44.4499 32.3084 43.543 32.2559Z" fill="white"/>
<path d="M49.9304 15.7932C48.9457 15.78 48.1684 14.9661 48.1813 13.929C48.1943 12.905 48.9975 12.1173 49.9952 12.1304C50.9798 12.1435 51.7572 12.9706 51.7443 13.9946C51.7313 15.0055 50.941 15.7932 49.9304 15.7932Z" fill="white"/>
<path d="M63.3662 38.61C63.3662 37.8879 63.3662 37.4416 63.3662 36.7852C63.8197 36.9689 64.2343 37.0608 64.5452 37.284C64.6748 37.389 64.6748 37.9273 64.5452 38.0323C64.2472 38.2818 63.8456 38.3868 63.3662 38.61Z" fill="white"/>
<path d="M45.6162 39.3845C45.0591 39.3845 44.6315 39.3845 44.1133 39.3845C44.3724 38.8725 44.5927 38.4261 44.8777 37.8748C45.1368 38.4261 45.3571 38.8594 45.6162 39.3845Z" fill="white"/>
<path d="M57.5356 39.3714C57.8077 38.8462 58.0409 38.413 58.313 37.901C58.5721 38.4393 58.7924 38.8725 59.0386 39.3714C58.5203 39.3714 58.0798 39.3714 57.5356 39.3714Z" fill="white"/>
<path d="M43.543 21.9241C43.543 21.4121 43.543 20.9395 43.543 20.48C44.3333 20.3356 44.7738 20.5456 44.8515 21.0576C44.9292 21.609 44.5406 21.8847 43.543 21.9241Z" fill="white"/>
<path d="M93.4749 6.89619V9.3936H97.2041C97.2547 9.9167 97.3222 10.4736 97.4235 11.0473L96.2085 10.8279C95.3479 15.114 93.3736 18.3201 89.965 20.0076C90.6062 20.4632 91.7537 21.4925 92.2093 22.0156C94.9261 20.3451 96.9172 17.6789 98.1997 14.1522C99.1615 17.0883 100.95 20.0582 104.156 21.9819C104.578 21.3575 105.574 20.2607 106.131 19.822C100.106 16.3121 99.6171 10.2204 99.6171 6.89619H93.4749ZM95.8373 42.2908C95.8879 42.0546 95.9385 41.8015 95.9891 41.5652H97.3897V42.2908H95.8373ZM96.3773 38.5784H99.5834V39.0509H96.3773V38.5784ZM102.57 42.2908H99.5496V41.5652H102.401V40.4178H99.5496V40.0465H101.71V37.5829H94.3692V40.0465H97.3897V40.4178H93.5086V41.5652H94.1498C93.998 42.2739 93.8292 42.9995 93.6605 43.5395H97.3897V44.147H99.5496V43.5395H102.57V42.2908ZM99.3471 36.0135H97.7103L97.8284 35.6086H99.3471V36.0135ZM92.9855 44.2989V33.7861H96.2929C96.2254 34.0224 96.1579 34.2586 96.0904 34.4948H94.4029V35.6086H95.7529L95.6179 36.0135H93.5761V37.2454H102.401V36.0135H101.338V34.4948H98.1659L98.3347 33.8705L97.626 33.7861H102.958V44.2989H92.9855ZM90.6906 31.5924V47.0494H92.9855V46.4925H102.958V47.0494H105.354V31.5924H90.6906Z" fill="white"/>
</svg>
