<svg width="108" height="51" viewBox="0 0 108 51" fill="none" xmlns="http://www.w3.org/2000/svg">
<path d="M95.0066 6.89619V9.3936H98.7358C98.7865 9.9167 98.854 10.4736 98.9552 11.0473L97.7402 10.8279C96.8797 15.114 94.9053 18.3201 91.4967 20.0076C92.138 20.4632 93.2854 21.4925 93.741 22.0156C96.4578 20.3451 98.449 17.6789 99.7314 14.1522C100.693 17.0883 102.482 20.0582 105.688 21.9819C106.11 21.3575 107.106 20.2607 107.662 19.822C101.638 16.3121 101.149 10.2204 101.149 6.89619H95.0066ZM97.369 42.2908C97.4196 42.0546 97.4703 41.8015 97.5209 41.5652H98.9215V42.2908H97.369ZM97.909 38.5784H101.115V39.0509H97.909V38.5784ZM104.102 42.2908H101.081V41.5652H103.933V40.4178H101.081V40.0465H103.241V37.5829H95.9009V40.0465H98.9215V40.4178H95.0403V41.5652H95.6816C95.5297 42.2739 95.361 42.9995 95.1922 43.5395H98.9215V44.147H101.081V43.5395H104.102V42.2908ZM100.879 36.0135H99.2421L99.3602 35.6086H100.879V36.0135ZM94.5172 44.2989V33.7861H97.8246C97.7571 34.0224 97.6896 34.2586 97.6221 34.4948H95.9347V35.6086H97.2846L97.1496 36.0135H95.1078V37.2454H103.933V36.0135H102.87V34.4948H99.6977L99.8664 33.8705L99.1577 33.7861H104.49V44.2989H94.5172ZM92.2223 31.5924V47.0494H94.5172V46.4925H104.49V47.0494H106.886V31.5924H92.2223Z" fill="white"/>
<path d="M13.085 6H9.09717V40.1615H13.085V6Z" fill="white"/>
<path d="M42.3706 11.9628H60.1913L58.4466 15.5653H46.7323V40.1615H42.3706V11.9628Z" fill="white"/>
<path d="M7.35253 13.4534H0.623047C0.747667 12.8323 0.872287 12.2112 1.37077 11.7143C1.74463 11.2174 2.49235 10.5963 3.48931 9.85093C4.11241 9.35404 4.61089 9.10559 4.73551 8.85714C4.98475 8.6087 5.10937 8.36025 5.10937 8.23602C5.10937 7.98758 4.98475 7.86335 4.86013 7.61491C4.61089 7.49068 4.36165 7.36646 4.11241 7.36646C3.86317 7.36646 3.61393 7.49068 3.36469 7.61491C3.24007 7.73913 3.11545 8.1118 2.99083 8.48447L0.747667 8.36025C0.872287 7.73913 0.996907 7.36646 1.24615 6.99379C1.49539 6.62112 1.86925 6.37267 2.24311 6.24845C2.74159 6.12422 3.24007 6 4.11241 6C4.86013 6 5.48323 6.12422 5.98171 6.24845C6.48019 6.37267 6.72943 6.62112 6.97867 6.99379C7.22791 7.36646 7.35253 7.73913 7.35253 8.1118C7.35253 8.6087 7.22791 8.98137 6.97867 9.35404C6.72943 9.72671 6.10633 10.2236 5.35861 10.7205C4.86013 10.9689 4.61089 11.2174 4.36165 11.3416C4.23703 11.4658 4.11241 11.5901 3.86317 11.7143H7.35253V13.4534Z" fill="white"/>
<path d="M7.35253 31.3416H0.623047C0.747667 30.7205 0.996907 30.2236 1.37077 29.6025C1.74463 29.1056 2.49235 28.4845 3.61393 27.7391C4.23703 27.2422 4.73551 26.9938 4.86013 26.7453C4.98475 26.4969 5.10937 26.2484 5.10937 26.1242C5.10937 25.8758 4.98475 25.7515 4.86013 25.5031C4.73551 25.3789 4.48627 25.2546 4.11241 25.2546C3.86317 25.2546 3.61393 25.3789 3.36469 25.5031C3.24007 25.6273 3.11545 26 2.99083 26.3727L0.747667 26.2484C0.872287 25.6273 0.996907 25.2546 1.24615 24.882C1.49539 24.5093 1.86925 24.2609 2.24311 24.1366C2.61697 24.0124 3.24007 23.8882 3.98779 23.8882C4.73551 23.8882 5.35861 24.0124 5.85709 24.1366C6.35557 24.2609 6.60481 24.5093 6.85405 24.882C7.10329 25.2546 7.22791 25.6273 7.22791 26C7.22791 26.4969 7.10329 26.8696 6.85405 27.2422C6.60481 27.6149 5.98171 28.1118 5.23399 28.6087C4.73551 28.8571 4.48627 29.1056 4.36165 29.2298C4.23703 29.354 3.98779 29.4782 3.86317 29.7267H7.35253V31.3416Z" fill="white"/>
<path d="M5.85704 32.8323V40.2857H3.48925V35.441C3.11539 35.5652 2.86615 35.8136 2.49229 35.9379C2.11843 36.0621 1.74457 36.1863 1.24609 36.4348V34.8199C1.99381 34.5714 2.49229 34.1987 2.99077 33.9503C3.36463 33.7018 3.73849 33.2049 3.98774 32.8323H5.85704Z" fill="white"/>
<path d="M4.11246 14.8198C1.8693 14.8198 0 16.559 0 18.795C0 21.031 1.8693 22.8944 4.11246 22.8944C6.35562 22.8944 8.22492 21.031 8.22492 18.795C8.22492 16.559 6.35562 14.8198 4.11246 14.8198Z" fill="white"/>
<path d="M67.544 12.4597V39.7889C67.544 40.1615 67.4193 40.2857 67.0455 40.2857H64.4285C64.0546 40.2857 63.93 40.1615 63.93 39.7889V16.8075C63.93 16.4348 63.8054 16.3106 63.4315 16.3106H62.6838C62.3099 16.3106 62.1853 16.0621 62.3099 15.6895L63.3069 12.3354C63.4315 12.087 63.5561 11.9628 63.8054 11.9628H66.9209C67.2947 11.9628 67.544 12.087 67.544 12.4597Z" fill="white"/>
<path d="M79.8813 19.0435H77.3889C77.0151 19.0435 76.8905 18.9192 76.8905 18.5466V16.3106C76.8905 16.0621 76.7658 15.9379 76.6412 15.8137C76.5166 15.6894 76.392 15.6894 76.1427 15.6894H74.1488C73.8996 15.6894 73.7749 15.6894 73.6503 15.8137C73.5257 15.9379 73.4011 16.0621 73.4011 16.3106V23.6397C73.4011 23.8882 73.5257 24.1366 73.6503 24.2609C73.7749 24.3851 73.8996 24.3851 74.1488 24.3851H78.2613C78.5105 24.3851 78.7598 24.5093 78.8844 24.6335L80.1306 25.8758C80.2552 26 80.3798 26.2484 80.3798 26.4969V38.0497C80.3798 38.2981 80.2552 38.5466 80.1306 38.6708L78.8844 39.913C78.7598 40.0373 78.5105 40.1615 78.2613 40.1615H71.9057C71.6564 40.1615 71.4072 40.0373 71.2826 39.913L70.0364 38.6708C69.7871 38.4224 69.7871 38.2981 69.7871 38.0497V14.0745C69.7871 13.8261 69.9117 13.5776 70.0364 13.4534L71.2826 12.0869C71.4072 11.9627 71.6564 11.8385 71.9057 11.8385H78.2613C78.5105 11.8385 78.6351 11.9627 78.8844 12.0869L80.1306 13.4534C80.2552 13.5776 80.3798 13.8261 80.3798 14.0745V18.5466C80.3798 18.9192 80.1306 19.0435 79.8813 19.0435ZM76.8905 35.8137V28.6087C76.8905 28.3602 76.7658 28.1118 76.6412 27.9876C76.5166 27.8633 76.392 27.8633 76.1427 27.8633H74.1488C73.8996 27.8633 73.7749 27.8633 73.6503 27.9876C73.5257 28.1118 73.4011 28.3602 73.4011 28.6087V35.8137C73.4011 36.0621 73.5257 36.3106 73.6503 36.4348C73.7749 36.559 73.8996 36.559 74.1488 36.559H76.0181C76.2674 36.559 76.392 36.559 76.5166 36.4348C76.7658 36.3106 76.8905 36.0621 76.8905 35.8137Z" fill="white"/>
<path d="M37.2617 6L34.52 9.60248H80.2556L82.0003 6H37.2617Z" fill="white"/>
<path d="M28.4132 6H33.7718L21.1852 22.3975L35.018 40.1615H29.5348L15.9512 22.5217L28.4132 6Z" fill="white"/>
<path d="M1.12147 42.2734C1.24609 42.2734 1.24609 42.2734 1.12147 42.2734C1.24609 42.2734 1.24609 42.3976 1.12147 42.2734C1.12147 42.3976 0.996852 42.5218 0.996852 42.5218H1.86919V42.7703H1.49533C1.49533 42.8945 1.61995 43.0187 1.61995 43.143H1.24609C1.24609 43.0187 1.12147 42.8945 1.12147 42.7703H0.872232C0.747612 42.8945 0.622992 43.143 0.498372 43.2672L0.124512 43.143C0.373752 42.7703 0.622992 42.5218 0.747612 42.1492L1.12147 42.2734ZM3.48925 43.3914V44.3852H2.24305V44.7579H3.73849C3.73849 45.1305 3.73849 45.5032 3.61387 45.5032C3.61387 45.6274 3.48925 45.6274 3.36463 45.7517C3.24001 45.7517 2.99077 45.8759 2.74153 45.8759L2.61691 45.5032C2.86615 45.5032 3.11539 45.5032 3.11539 45.5032C3.11539 45.5032 3.24001 45.5032 3.24001 45.379C3.24001 45.379 3.24001 45.2548 3.36463 45.1305H2.24305V46.1243H1.86919V45.379C1.74457 45.5032 1.49533 45.6274 1.37071 45.7517C1.24609 45.6274 0.996852 45.7516 0.622992 45.8759L0.249132 45.6274C0.622992 45.5032 0.872232 45.379 1.24609 45.2548C1.37071 45.1305 1.49533 45.1305 1.74457 45.0063H0.498372C0.622992 44.7579 0.622992 44.3852 0.747612 44.1367H1.99381V43.7641H0.747612V43.5156H3.48925V43.3914ZM1.86919 44.261H0.996852C0.996852 44.3852 0.996852 44.5094 0.872232 44.6336H1.86919V44.261ZM2.74153 42.2734C2.86615 42.2734 2.86615 42.2734 2.74153 42.2734C2.86615 42.2734 2.86615 42.3976 2.74153 42.2734C2.74153 42.3976 2.61691 42.5218 2.61691 42.5218H3.73849V42.7703H3.11539C3.24001 42.8945 3.24001 43.0187 3.24001 43.143H2.86615C2.86615 43.0187 2.74153 42.8945 2.74153 42.7703H2.49229C2.49229 43.0187 2.36767 43.143 2.24305 43.2672L1.86919 43.143C2.11843 42.8945 2.24305 42.5218 2.36767 42.1492L2.74153 42.2734ZM2.24305 44.0125H3.11539V43.6399H2.24305V44.0125Z" fill="white"/>
<path d="M6.35541 43.6398V42.2733H6.72927C6.85389 42.2733 6.85389 42.2733 6.85389 42.2733C6.85389 42.2733 6.85389 42.2733 6.72927 42.3975V43.5156H8.22471V43.8882H6.72927V45.8758H6.35541V43.8882H4.73535V43.5156H6.35541V43.6398Z" fill="white"/>
<path d="M10.5925 44.0125C10.5925 44.1367 10.5925 44.1367 10.5925 44.0125C10.7171 44.1367 10.5925 44.1367 10.5925 44.1367C10.4679 44.5094 10.3433 44.8821 10.2186 45.0063C10.094 45.2548 9.84478 45.5032 9.59554 45.7517L9.22168 45.5032C9.3463 45.379 9.47092 45.2548 9.59554 45.1305C9.72016 45.0063 9.84478 44.8821 9.9694 44.6336C9.9694 44.5094 10.094 44.261 10.094 44.0125H10.5925ZM11.091 42.2734C11.2156 42.2734 11.2156 42.2734 11.091 42.2734C11.2156 42.2734 11.2156 42.3976 11.2156 42.3976V43.0187H12.711V43.3914H9.22168V43.0187H10.7171V42.1492L11.091 42.2734ZM12.0879 44.7579C12.2126 45.0063 12.4618 45.2548 12.711 45.6274L12.2126 45.8759C11.9633 45.6274 11.8387 45.379 11.7141 45.1305C11.5895 44.8821 11.4648 44.5094 11.3402 44.1367L11.7141 44.0125C11.8387 44.261 11.9633 44.5094 12.0879 44.7579Z" fill="white"/>
<path d="M14.3312 44.6336C14.3312 45.0062 14.2066 45.3789 13.9574 45.8758L13.5835 45.7516C13.7081 45.2547 13.8327 44.882 13.9574 44.5093C14.082 44.0124 14.082 43.5155 14.082 43.0187V42.2733H17.1975V43.2671H14.4558C14.3312 43.764 14.3312 44.2609 14.3312 44.6336ZM14.4558 43.0187H16.8236V42.646H14.4558V43.0187ZM14.9543 43.764C15.0789 43.764 15.0789 43.764 14.9543 43.764C15.0789 43.764 15.0789 43.8882 14.9543 43.8882V45.2547H16.699V43.6398H16.9482H17.0729C17.0729 43.6398 17.0729 43.6398 17.0729 43.764V45.7516H16.699V45.5031H14.9543V45.7516H14.5805V43.6398L14.9543 43.764ZM15.8267 44.0124V43.5156H16.0759H16.2005C16.2005 43.5156 16.2005 43.5155 16.2005 43.6398V44.0124H16.8236V44.2609H16.2005V44.6336H16.699V44.882H15.3282V44.6336H15.8267V44.2609H15.2036V44.0124H15.8267V44.0124Z" fill="white"/>
<path d="M21.8085 42.2733C21.9331 42.2733 21.9331 42.2733 21.8085 42.2733C21.9331 42.3975 21.9331 42.3975 21.8085 42.3975V42.646H23.4285V43.0187H22.0577C22.307 43.2671 22.5562 43.3913 22.6808 43.3913C22.9301 43.5156 23.1793 43.6398 23.5532 43.764L23.1793 44.1367C22.8054 44.0124 22.5562 43.8882 22.307 43.6398C22.1823 43.5155 21.9331 43.3913 21.8085 43.2671V43.6398H21.4346V43.2671C21.1854 43.5156 21.0608 43.6398 20.8115 43.764C20.5623 43.8882 20.313 44.0124 19.9392 44.1367L19.6899 43.8882C20.0638 43.764 20.4377 43.6398 20.6869 43.5156C20.8115 43.3913 21.0608 43.2671 21.1854 43.1429H19.9392V42.7702H21.5592V42.2733H21.8085ZM22.4316 43.8882L22.5562 44.0124C22.5562 44.0124 22.5562 44.1367 22.4316 44.1367L21.8085 44.7578V44.882H23.3039V45.2547H21.8085V45.6274C21.8085 45.7516 21.8085 45.8758 21.6839 46C21.5592 46.1242 21.31 46.1242 20.9361 46.1242L20.8115 45.7516H21.1854C21.31 45.7516 21.4346 45.7516 21.4346 45.6274V45.3789H19.9392V45.0062H21.6839V44.5093H21.8085L22.0577 44.1367H20.6869V43.8882H22.1823H22.4316C22.4316 43.764 22.4316 43.764 22.4316 43.8882Z" fill="white"/>
<path d="M27.9147 42.2733V45.7516H27.5408H24.7992V45.8758H24.4253V42.3975H27.9147V42.2733ZM27.5408 45.3789V42.646H24.7992V45.3789H27.5408ZM26.2946 43.1429C26.2946 43.0187 26.2946 42.8944 26.2946 42.7702L26.5438 42.8944C26.5438 42.8944 26.5438 42.8944 26.5438 43.0187C26.5438 43.1429 26.5438 43.1429 26.5438 43.2671H27.0423C26.9177 43.1429 26.7931 43.0187 26.7931 43.0187L27.0423 42.7702C27.1669 42.8944 27.2916 42.8944 27.4162 43.0187L27.1669 43.1429H27.4162V43.3913H26.5438C26.5438 43.6398 26.5438 44.0124 26.6685 44.1367V44.2609C26.7931 44.0124 26.9177 43.764 26.9177 43.5156L27.1669 43.6398C27.1669 43.6398 27.1669 43.6398 27.1669 43.764C27.0423 44.1367 26.9177 44.3851 26.7931 44.6336V44.7578C26.7931 44.882 26.9177 44.882 26.9177 44.882C26.9177 44.882 27.0423 44.7578 27.0423 44.5093L27.2916 44.7578C27.1669 45.1305 27.0423 45.2547 26.9177 45.2547C26.7931 45.2547 26.6685 45.1305 26.5438 45.0062L26.4192 44.882C26.2946 45.0062 26.17 45.1305 25.9207 45.2547L25.6715 45.0062C25.7961 44.882 26.0454 44.7578 26.17 44.7578L26.2946 44.6336C26.2946 44.5093 26.17 44.3851 26.17 44.2609C26.17 44.0124 26.0454 43.764 26.0454 43.3913H24.7992V43.1429H26.2946V43.1429ZM26.17 44.882C25.9207 44.882 25.6715 45.0062 25.173 45.1305C25.173 45.1305 25.173 45.2547 25.0484 45.2547L24.9238 44.882C25.2976 44.882 25.6715 44.7578 26.0454 44.7578V44.882H26.17ZM26.17 43.6398V44.5093H25.173V43.6398H26.17ZM25.7961 43.8882H25.4223V44.2609H25.7961V43.8882Z" fill="white"/>
<path d="M29.5347 42.2733C29.5347 42.2733 29.6593 42.2733 29.5347 42.2733C29.6593 42.3975 29.6593 42.3975 29.5347 42.3975V44.1367H30.5317V45.8758H30.1578V45.0062H29.6593C29.6593 45.1305 29.6593 45.2547 29.6593 45.3789C29.6593 45.5031 29.5347 45.6274 29.5347 45.7516C29.4101 45.8758 29.4101 45.8758 29.1609 46L28.9116 45.7516C29.0362 45.7516 29.1609 45.6274 29.1609 45.6274C29.2855 45.6274 29.2855 45.5031 29.2855 45.5031C29.2855 45.3789 29.2855 45.3789 29.4101 45.2547H28.9116V44.882H30.1578V44.6336H29.1609V42.5218L29.5347 42.2733ZM31.5286 42.2733V43.8882H29.9086V42.2733H31.5286ZM31.1548 42.7702V42.5218H30.1578V42.7702H31.1548ZM31.1548 43.2671V43.0187H30.1578V43.2671H31.1548ZM31.1548 43.3913H30.1578V43.6398H31.1548V43.3913ZM31.7779 42.2733H32.1517H32.2764C32.2764 42.2733 32.2764 42.2733 32.2764 42.3975V44.3851H31.2794V44.6336H32.5256V45.0062H32.1517V45.8758H31.7779V45.0062H31.2794V45.8758H30.9055V44.1367H31.7779V42.2733Z" fill="white"/>
<path d="M34.769 42.5218C34.6444 42.5218 34.5197 42.646 34.3951 42.646V43.3914H35.0182V43.764H34.5197C34.6444 44.0125 34.8936 44.2609 35.0182 44.5094L34.769 44.7578C34.6444 44.6336 34.5197 44.3852 34.3951 44.1367V45.8758H34.0213V44.2609C34.0213 44.3851 33.8966 44.5094 33.8966 44.5094C33.772 44.7578 33.6474 44.882 33.5228 45.1305L33.1489 44.882C33.2735 44.7578 33.3982 44.5094 33.5228 44.2609C33.6474 44.1367 33.6474 43.8883 33.772 43.6398H33.1489V43.2671H33.8966V42.646C33.772 42.646 33.6474 42.7702 33.5228 42.7702L33.2735 42.3976C33.5228 42.3976 33.772 42.3976 34.0213 42.2734C34.1459 42.2734 34.3951 42.1491 34.6444 42.0249L34.8936 42.2734L34.769 42.5218C34.769 42.5218 34.8936 42.5218 34.769 42.5218ZM36.5137 42.2734C36.6383 42.2734 36.6383 42.2734 36.5137 42.2734C36.6383 42.3976 36.6383 42.3976 36.5137 42.3976V44.3852C36.6383 44.3852 36.7629 44.2609 36.8875 44.2609V44.6336L36.5137 44.7578V45.8758H36.1398V44.882L35.2675 45.1305C35.2675 45.2547 35.1428 45.2547 35.1428 45.2547C35.1428 45.2547 35.1428 45.2547 35.1428 45.1305L35.0182 44.7578C35.3921 44.6336 35.8906 44.6336 36.2644 44.5094V42.1491L36.5137 42.2734ZM35.8906 44.0125L35.6413 44.2609C35.3921 44.0125 35.2675 43.8883 35.1428 43.764L35.3921 43.5156C35.5167 43.764 35.7659 43.8883 35.8906 44.0125ZM36.0152 43.0187L35.7659 43.2671C35.5167 43.0187 35.3921 42.8945 35.1428 42.7702L35.3921 42.5218C35.6413 42.7702 35.8906 42.8945 36.0152 43.0187Z" fill="white"/>
<path d="M38.5075 42.8945V42.1492H38.8813H39.006C39.006 42.1492 39.006 42.2734 38.8813 42.2734V42.7703H39.3798V43.2672H38.8813V44.1367C39.006 44.0125 39.2552 44.0125 39.3798 43.8883V44.261L38.8813 44.5094V45.5032C38.8813 45.6274 38.8813 45.7517 38.7567 45.8759C38.6321 46.0001 38.5075 46.0001 38.1336 46.0001L38.009 45.6274H38.2582C38.3829 45.6274 38.3829 45.6274 38.3829 45.5032V44.7579L38.009 44.8821C38.009 45.0063 37.8844 45.0063 37.8844 45.0063C37.8844 45.0063 37.8844 45.0063 37.8844 44.8821L37.7598 44.5094C38.009 44.3852 38.2582 44.3852 38.5075 44.261V43.2672H37.8844V42.8945H38.5075ZM40.2522 42.7703V42.1492H40.626C40.7506 42.1492 40.7506 42.1492 40.7506 42.1492C40.7506 42.1492 40.7506 42.1492 40.626 42.2734V42.6461H41.4984V43.0187H40.626V43.6399H41.1245H41.2491C41.2491 43.6399 41.2491 43.6399 41.3737 43.6399L41.4984 43.7641C41.4984 43.7641 41.4984 43.7641 41.4984 43.8883C41.4984 43.8883 41.4984 43.8883 41.3737 44.0125C41.2491 44.5094 40.9999 44.8821 40.8753 45.1305C41.1245 45.2548 41.3737 45.5032 41.7476 45.6274L41.4984 45.8759C41.1245 45.7517 40.8753 45.5032 40.7506 45.379C40.5014 45.6274 40.1275 45.7517 39.7537 45.8759L39.5044 45.5032C39.7537 45.379 40.0029 45.379 40.1275 45.2548C40.2522 45.2548 40.3768 45.1305 40.5014 45.0063L40.3768 44.8821C40.1275 44.6336 40.0029 44.261 40.0029 43.8883H39.7537V43.5156H40.5014V42.8945H39.7537V42.5218H40.2522V42.7703ZM40.3768 44.8821C40.5014 44.8821 40.5014 44.8821 40.3768 44.8821C40.5014 45.0063 40.5014 44.8821 40.3768 44.8821C40.626 44.7579 40.7506 44.5094 40.8753 44.0125H40.0029C40.1275 44.3852 40.2522 44.6336 40.3768 44.8821Z" fill="white"/>
<path d="M43.3676 42.7703C43.2429 42.7703 43.1183 42.8945 42.9937 42.8945V43.2672H43.4922V43.5156H42.9937V43.8883H43.4922V44.1367H42.9937V44.5094H43.7414V43.6399H43.9907H44.1153C44.1153 43.6399 44.1153 43.6399 43.9907 43.7641V44.5094H44.2399V43.3914H43.7414V42.1492H43.9907H44.1153C44.1153 42.1492 44.1153 42.1492 43.9907 42.2734V42.3976H44.4891V42.6461H43.9907V42.8945H44.4891V44.3852H45.2369V44.0125H44.7384V43.7641H45.2369V43.3914H44.7384V43.143H45.2369V42.7703H44.863V42.3976H45.7353V44.5094H46.1092V44.8821H43.6168L43.866 45.0063C43.866 45.0063 43.866 45.0063 43.7414 45.0063C43.3676 45.2548 43.1183 45.5032 42.7445 45.6274H42.3706C42.7445 45.5032 43.1183 45.2548 43.3676 45.0063H42.3706V44.6336H42.6198V42.5218L42.8691 42.6461H42.9937C43.1183 42.6461 43.2429 42.5218 43.2429 42.5218L43.4922 42.7703C43.4922 42.7703 43.4922 42.7703 43.4922 42.8945L43.3676 42.7703C43.4922 42.7703 43.4922 42.7703 43.3676 42.7703ZM45.9846 45.6274L45.6107 45.8759C45.2369 45.6274 44.9876 45.379 44.6138 45.1305L44.863 45.0063C45.2369 45.2548 45.6107 45.379 45.9846 45.6274Z" fill="white"/>
<path d="M48.8509 42.2733C48.9755 42.2733 48.9755 42.2733 48.8509 42.2733C48.9755 42.3975 48.9755 42.3975 48.8509 42.3975V42.646C48.8509 42.8944 48.8509 43.2671 48.8509 43.5156C48.9755 43.8882 49.2247 44.2609 49.3493 44.5093C49.5986 44.882 49.9724 45.2547 50.5955 45.6274L50.0971 45.8758C49.5986 45.3789 49.2247 45.0062 48.9755 44.6336C48.8509 44.5093 48.7262 44.2609 48.7262 44.0124V44.1367C48.6016 44.5093 48.3524 44.7578 48.1031 45.1305C47.8539 45.3789 47.6047 45.6274 47.2308 45.7516L46.8569 45.5031C47.2308 45.2547 47.48 45.1305 47.6047 45.0062C47.8539 44.7578 48.1031 44.5093 48.2278 44.2609C48.477 43.8882 48.477 43.3913 48.477 42.7702V42.646C48.477 42.5218 48.477 42.5218 48.477 42.3975L48.8509 42.2733Z" fill="white"/>
<path d="M53.3373 42.2734C53.3373 42.2734 53.4619 42.2734 53.3373 42.2734C53.4619 42.3976 53.4619 42.3976 53.3373 42.3976V42.7703H54.8327V43.143H54.3343C54.3343 43.6399 54.085 44.1367 53.9604 44.3852C53.8358 44.5094 53.7112 44.6336 53.5865 44.7579C53.9604 45.0063 54.3343 45.2548 54.9574 45.5032L54.5835 45.8759C54.085 45.6274 53.5865 45.379 53.2127 45.1305C53.0881 45.1305 53.0881 45.2548 52.9634 45.2548C52.5896 45.5032 52.2157 45.6274 51.5926 45.8759L51.2188 45.5032C51.8419 45.379 52.3403 45.1305 52.5896 45.0063C52.7142 45.0063 52.7142 44.8821 52.8388 44.8821C52.7142 44.7579 52.5896 44.7579 52.5896 44.6336C52.2157 44.261 52.0911 43.7641 51.8419 43.143H51.2188V42.7703H52.7142V42.1492L53.3373 42.2734ZM53.0881 44.3852C53.2127 44.5094 53.2127 44.5094 53.3373 44.6336C53.4619 44.5094 53.4619 44.3852 53.5865 44.3852C53.8358 44.1367 53.9604 43.7641 53.9604 43.2672H52.3403C52.465 43.6399 52.7142 44.1367 53.0881 44.3852Z" fill="white"/>
<path d="M56.5775 43.0187V42.7702H56.8268H56.9514C56.9514 42.7702 56.9514 42.7702 56.9514 42.8945V43.0187H57.5745V43.2671H56.9514V43.3914H57.6991V43.6398H57.3253C57.4499 43.764 57.5745 43.8883 57.6991 43.8883L57.4499 44.0125C57.3252 44.0125 57.3253 43.8883 57.2006 43.8883V44.0125H56.8268V44.1367C57.076 44.1367 57.2006 44.1367 57.3253 44.1367V44.3851C57.076 44.3851 56.5775 44.5094 55.9544 44.5094V44.2609C56.2037 44.2609 56.4529 44.2609 56.5775 44.2609V44.1367H56.2037V44.0125C56.079 44.1367 56.0791 44.1367 55.9544 44.2609L55.7052 44.0125C55.8298 44.0125 55.9544 43.8883 56.079 43.8883C56.079 43.8883 56.2037 43.8883 56.2037 43.764H55.8298V43.5156H56.5775V43.2671H55.9544V43.0187H56.5775ZM56.9514 42.3976V42.1491H57.2006H57.3253C57.3253 42.1491 57.3253 42.1491 57.2006 42.2734H57.9484V42.0249H58.1976H58.3222C58.3222 42.0249 58.3222 42.0249 58.3222 42.1491H59.3192V42.3976H58.3222V42.646H57.9484V42.3976H57.3253V42.646H56.9514V42.3976H55.7052V42.1491H56.9514V42.3976ZM59.4438 45.0063V45.2547H58.6961C58.8207 45.3789 59.0699 45.5032 59.1946 45.7516L58.9453 46.0001C58.8207 45.8758 58.8207 45.8758 58.6961 45.7516C58.073 45.7516 57.2006 45.8758 56.079 45.8758C56.079 45.8758 56.0791 45.8758 55.9544 45.8758L55.8298 45.6274C55.9544 45.6274 56.2037 45.6274 56.3283 45.6274L56.7021 45.3789H55.5806V45.1305H59.4438V45.0063ZM56.5775 43.8883V43.764H56.8268H56.9514C56.9514 43.764 56.9514 43.764 56.9514 43.8883H57.2006C57.076 43.764 57.076 43.764 56.9514 43.6398H56.4529C56.3283 43.764 56.3283 43.764 56.2037 43.8883H56.5775ZM58.8207 44.5094V44.7578H56.3283V44.5094H58.8207ZM58.3222 45.2547H57.3253L56.9514 45.5032C57.4499 45.5032 57.9484 45.5032 58.4468 45.3789C58.4468 45.3789 58.3222 45.3789 58.3222 45.2547ZM58.1976 43.2671C58.1976 43.1429 58.1976 43.1429 58.1976 43.0187H58.4468H58.5715C58.5715 43.0187 58.5715 43.0187 58.4468 43.1429V43.2671H59.1946L59.0699 44.2609C59.0699 44.2609 59.0699 44.2609 59.1946 44.2609C59.1946 44.2609 59.1946 44.2609 59.3192 44.2609C59.3192 44.2609 59.3192 44.1367 59.3192 44.0125L59.5684 44.1367C59.5684 44.2609 59.5684 44.3852 59.4438 44.5094C59.4438 44.6336 59.3192 44.6336 59.1946 44.6336H58.9453C58.8207 44.6336 58.6961 44.5094 58.6961 44.3851L58.8207 43.6398H58.4468C58.4468 43.764 58.4468 43.8883 58.3222 44.0125C58.4468 44.0125 58.4468 44.1367 58.5715 44.1367L58.3222 44.3851C58.1976 44.2609 58.1976 44.2609 58.073 44.2609L57.9484 44.3851C57.8237 44.5094 57.6991 44.5094 57.5745 44.6336L57.3253 44.3851C57.4499 44.3851 57.5745 44.2609 57.6991 44.2609C57.8237 44.2609 57.8237 44.1367 57.8237 44.1367C57.6991 44.1367 57.5745 44.0125 57.5745 44.0125L57.6991 43.764C57.8237 43.764 57.8237 43.8883 57.9484 43.8883C57.9484 43.764 57.9483 43.764 58.073 43.6398H57.5745V43.2671H58.1976Z" fill="white"/>
<path d="M61.313 43.2672C61.313 43.2672 61.4376 43.2672 61.313 43.2672C61.4376 43.2672 61.313 43.2672 61.313 43.2672C61.313 43.3914 61.1884 43.5156 61.1884 43.6399C61.1884 43.6399 61.1884 43.7641 61.0637 43.7641V46.0001H60.6899V44.261L60.5653 44.3852L60.1914 44.1367C60.5653 43.8883 60.8145 43.5156 60.9391 43.143L61.313 43.2672ZM61.313 42.3976C61.313 42.3976 61.4376 42.3976 61.313 42.3976C61.4376 42.3976 61.4376 42.3976 61.313 42.3976C61.313 42.5218 61.1884 42.5218 61.1884 42.7703C61.0637 43.0187 60.8145 43.143 60.5653 43.3914L60.1914 43.143C60.5653 42.8945 60.8145 42.6461 60.9391 42.2734L61.313 42.3976ZM61.6868 43.6399C61.6868 43.6399 61.8115 43.6399 61.6868 43.6399C61.8115 43.6399 61.6868 43.7641 61.6868 43.6399C61.6868 44.261 61.6868 44.6336 61.5622 44.7579C61.5622 44.8821 61.4376 45.1305 61.4376 45.2548H61.0637C61.1884 45.0063 61.1884 44.8821 61.1884 44.7579C61.1884 44.5094 61.313 44.1367 61.313 43.6399H61.6868ZM61.8115 42.8945V42.1492H62.1853H62.3099C62.3099 42.1492 62.3099 42.1492 62.1853 42.2734V42.7703H62.6838V43.2672H62.1853V46.0001H61.8115V43.2672H61.313V43.0187H61.8115V42.8945ZM62.8084 42.6461L62.5592 42.8945C62.4346 42.7703 62.3099 42.6461 62.1853 42.5218L62.4346 42.2734C62.5592 42.3976 62.6838 42.5218 62.8084 42.6461ZM62.6838 43.6399C62.6838 43.6399 62.6838 43.7641 62.6838 43.6399V44.7579C62.6838 44.8821 62.6838 44.8821 62.8084 44.8821C62.8084 44.8821 62.8084 44.8821 62.933 44.8821C62.933 44.8821 62.933 44.7579 62.933 44.5094L63.1823 44.6336C63.1823 44.8821 63.0577 45.0063 63.0577 45.1305C63.0577 45.1305 62.933 45.2548 62.8084 45.2548C62.6838 45.2548 62.5592 45.2548 62.4346 45.1305C62.4346 45.1305 62.3099 45.0063 62.3099 44.8821V43.6399H62.6838ZM63.93 43.2672V43.6399H63.6808V45.6274C63.6808 45.7517 63.6808 45.8759 63.5561 45.8759C63.4315 46.0001 63.3069 46.0001 62.933 46.0001L62.8084 45.6274H63.1823C63.3069 45.6274 63.3069 45.6274 63.3069 45.5032V43.6399H62.8084V43.2672H63.93ZM63.8054 42.5218V42.8945H62.933V42.5218H63.8054Z" fill="white"/>
<path d="M65.3009 45.0063C65.3009 45.2547 65.1763 45.5032 65.0517 45.8758L64.6778 45.7516C64.8025 45.5032 64.9271 45.2547 64.9271 45.0063C65.0517 44.7578 65.0517 44.3852 65.0517 44.1367V43.6398H66.921V44.882H65.3009C65.3009 44.882 65.3009 44.882 65.3009 45.0063ZM66.1733 42.2734C66.2979 42.2734 66.2979 42.2734 66.1733 42.2734C66.2979 42.3976 66.2979 42.3976 66.1733 42.2734C66.1733 42.3976 66.1733 42.3976 66.1733 42.2734C66.2979 42.5218 66.5471 42.7702 66.6718 42.7702C66.7964 42.8945 67.0456 42.8945 67.1702 43.0187L66.921 43.3914C66.7964 43.2671 66.5471 43.2671 66.4225 43.1429V43.2671H65.3009V43.0187C65.1763 43.1429 64.9271 43.2671 64.8025 43.2671L64.5532 43.0187C65.0517 42.7702 65.4256 42.5218 65.7994 42.0249L66.1733 42.2734ZM65.4256 44.2609C65.4256 44.3851 65.4256 44.3852 65.4256 44.5094H66.6718V44.2609H65.4256ZM66.921 44.882V45.8758H66.5471V45.7516H65.6748V45.8758H65.3009V44.882H66.921ZM65.4256 44.0125H66.6718V43.764H65.4256V44.0125ZM66.4225 43.0187C66.2979 42.8945 66.1733 42.7702 65.924 42.646C65.7994 42.7702 65.6748 42.8945 65.4256 43.0187H66.4225ZM66.6718 45.5032V45.2547H65.7994V45.5032H66.6718ZM67.6687 42.7702C67.6687 42.7702 67.7933 42.8945 67.6687 42.7702C67.7933 42.8945 67.7933 42.8945 67.6687 42.8945V45.0063H67.2949V42.7702H67.6687ZM68.4164 42.2734C68.4164 42.3976 68.4164 42.3976 68.4164 42.2734C68.5411 42.3976 68.4164 42.3976 68.4164 42.3976V45.3789C68.4164 45.5032 68.4164 45.6274 68.2918 45.7516C68.1672 45.8758 68.0426 45.8758 67.6687 45.8758L67.5441 45.5032H67.918C68.0426 45.5032 68.0426 45.5032 68.0426 45.3789V42.2734H68.4164Z" fill="white"/>
<path d="M69.9118 45.0063C70.0364 45.1305 70.0364 45.1305 69.9118 45.0063C70.0364 45.1305 70.0364 45.1305 69.9118 45.0063C69.7872 45.379 69.6625 45.6274 69.4133 45.7517L69.1641 45.6274C69.4133 45.379 69.5379 45.1305 69.6625 44.8821L69.9118 45.0063ZM71.2826 42.1492C71.2826 42.1492 71.2826 42.2734 71.2826 42.1492C71.4072 42.2734 71.4072 42.2734 71.2826 42.2734V42.5218H72.778V42.7703H72.1549C72.0303 42.8945 72.0303 43.0187 71.9057 43.143H72.9027V43.3914H69.4133V43.143H70.5349C70.5349 43.0187 70.4103 42.8945 70.4103 42.7703H69.6625V42.5218H71.0334V42.1492H71.2826ZM72.4042 43.6399V44.8821H69.9118V43.6399H72.4042ZM72.0303 44.1367V44.0125H70.161V44.1367H72.0303ZM72.0303 44.3852H70.161V44.5094H72.0303V44.3852ZM70.6595 45.0063C70.7841 45.1305 70.6595 45.1305 70.6595 45.1305C70.6595 45.1305 70.6595 45.1305 70.6595 45.2548C70.6595 45.379 70.6595 45.379 70.6595 45.5032C70.6595 45.5032 70.7841 45.6274 70.9087 45.6274H71.6565C71.7811 45.6274 71.9057 45.6274 71.9057 45.5032C71.9057 45.5032 72.0303 45.379 72.0303 45.1305L72.4042 45.2548C72.4042 45.5032 72.2796 45.6274 72.1549 45.7517C72.0303 45.8759 72.0303 45.8759 71.9057 45.8759H70.7841C70.6595 45.8759 70.5349 45.8759 70.4103 45.7517C70.2856 45.6274 70.2856 45.5032 70.2856 45.379V44.8821L70.6595 45.0063ZM71.4072 43.143C71.5318 43.0187 71.5318 42.8945 71.6565 42.7703H70.5349C70.6595 42.8945 70.6595 43.0187 70.6595 43.143H71.4072ZM71.6565 45.2548L71.4072 45.5032C71.2826 45.379 71.158 45.2548 71.0334 45.1305L71.2826 45.0063C71.2826 45.0063 71.5318 45.1305 71.6565 45.2548ZM73.0273 45.6274L72.6534 45.7517C72.5288 45.5032 72.2796 45.2548 72.1549 45.1305L72.4042 45.0063C72.6534 45.1305 72.778 45.2548 73.0273 45.6274Z" fill="white"/>
<path d="M75.2705 43.764V44.7578H74.8966V45.3789C75.0212 45.3789 75.1458 45.2547 75.3951 45.1305V45.3789L74.772 45.7516C74.772 45.8758 74.6474 45.8758 74.6474 45.8758L74.5227 45.6274H74.6474V44.882H74.3981C74.3981 45.1305 74.2735 45.3789 74.2735 45.5031C74.1489 45.6274 74.1489 45.8758 73.8996 46L73.6504 45.7516C73.775 45.6274 73.8996 45.5031 73.8996 45.3789C73.8996 45.2547 74.0243 45.1305 74.0243 44.882H73.775V43.8882H75.2705V43.764ZM74.772 42.2733C74.8966 42.3975 74.8966 42.3975 74.772 42.3975V42.646H75.3951V42.8944H75.1458L75.0212 43.2671H75.3951V43.5156H73.6504V43.2671H74.0243C74.0243 43.1429 73.8996 43.0187 73.8996 42.8944H73.6504V42.646H74.2735V42.2733H74.772ZM74.8966 44.0124H74.1489V44.5093H74.8966V44.0124ZM74.772 43.2671L74.8966 42.8944H74.3981C74.3981 43.0187 74.5227 43.1429 74.5227 43.2671H74.772ZM77.1398 43.764V44.7578H76.7659V45.3789C76.7659 45.5031 76.7659 45.5031 76.8905 45.5031H77.0151H77.1398C77.1398 45.5031 77.1398 45.3789 77.1398 45.2547L77.5136 45.3789C77.5136 45.6274 77.389 45.7516 77.389 45.7516C77.2644 45.7516 77.2644 45.8758 77.1398 45.8758H76.8905C76.6413 45.8758 76.5167 45.7516 76.5167 45.6274V44.882H76.2674C76.2674 45.1305 76.2674 45.2547 76.1428 45.3789C76.0182 45.5031 76.0182 45.6274 75.8936 45.7516C75.7689 45.8758 75.6443 45.8758 75.5197 46L75.1458 45.7516C75.2705 45.7516 75.3951 45.6274 75.5197 45.5031C75.6443 45.3789 75.6443 45.3789 75.7689 45.2547C75.7689 45.1305 75.8936 45.0062 75.8936 44.882H75.5197V43.8882H77.1398V43.764ZM76.5167 42.2733C76.6413 42.2733 76.6413 42.2733 76.5167 42.2733C76.6413 42.3975 76.6413 42.3975 76.5167 42.3975V42.5218H77.2644V42.7702H76.8905V43.2671H77.389V43.5156H75.5197V43.2671H75.8936C75.8936 43.1429 75.7689 43.0187 75.7689 42.8944H75.5197V42.646H76.2674V42.2733H76.5167ZM76.7659 44.0124H76.0182V44.5093H76.8905V44.0124H76.7659ZM76.6413 43.2671L76.7659 42.8944H76.2674C76.2674 43.0187 76.392 43.1429 76.392 43.2671H76.6413Z" fill="white"/>
<path d="M80.2553 42.2733C80.3799 42.3975 80.3799 42.3975 80.2553 42.3975H81.8753V42.8944H81.6261V43.0187H80.8784V43.2671H81.6261V43.5156H80.8784V43.6398H81.8753V43.8882H80.8784C80.8784 43.8882 81.003 43.8882 81.1276 43.8882C81.3768 43.8882 81.6261 44.0124 81.9999 44.0124L81.7507 44.2609C81.6261 44.2609 81.5015 44.2609 81.5015 44.2609V45.3789H80.8784C81.2522 45.5031 81.6261 45.5031 81.9999 45.6274L81.7507 45.8758C81.1276 45.7516 80.6291 45.6274 80.3799 45.5031L80.5045 45.3789H79.7568L79.8814 45.5031C79.8814 45.5031 79.8814 45.5031 79.7568 45.5031C79.2583 45.6274 78.8844 45.7516 78.5106 45.7516H78.2613C78.7598 45.7516 79.1337 45.6274 79.3829 45.5031H78.7598V44.2609C78.6352 44.2609 78.6352 44.2609 78.5106 44.2609L78.1367 44.0124C78.5106 44.0124 78.8844 43.8882 79.0091 43.8882C79.1337 43.8882 79.1337 43.8882 79.1337 43.8882H78.1367V43.6398H79.1337V43.5156H78.5106V43.2671H79.1337V43.1429H78.386V43.0187H78.1367V42.5218H79.7568V42.2733H80.2553ZM79.2583 42.7702V42.646H78.6352V42.7702H79.2583ZM81.003 44.5093V44.3851H79.0091V44.5093H81.003ZM81.003 44.882V44.7578H79.0091V44.882H81.003ZM81.003 45.0062H79.0091V45.1305H81.003V45.0062ZM80.6291 44.0124C80.5045 44.0124 80.3799 43.8882 80.3799 43.8882H79.7568C79.6322 44.0124 79.6322 44.0124 79.5075 44.0124H80.6291ZM79.6322 42.7702H80.5045V42.646H79.6322V42.7702V42.7702ZM80.5045 43.1429H79.6322V43.2671H80.5045V43.1429ZM80.5045 43.6398V43.5156H79.6322V43.6398H80.5045ZM80.7537 42.7702H81.3768V42.646H80.7537V42.7702Z" fill="white"/>
</svg>
