<svg width="107" height="41" viewBox="0 0 107 41" fill="none" xmlns="http://www.w3.org/2000/svg">
<path d="M100.544 3.24422H99.1251V4.56489H103.481V3.24422H101.964V2.63316H103.866V1.34205H101.964V0.563443H100.544V1.34205H98.7998V2.63316H100.544V3.24422ZM98.5436 5.35336L97.8142 5.51105V3.79614H98.583V2.43604H97.8142V0.573299H96.464V2.43604H96.2472C96.2866 2.13051 96.3162 1.82498 96.3359 1.51945L95.2813 1.36176C95.2123 2.54446 95.0448 3.82571 94.7392 4.61417C95.0053 4.69302 95.508 4.87042 95.7347 4.99855C95.8529 4.66345 95.9515 4.24951 96.0402 3.79614H96.464V5.78701C95.8825 5.90528 95.3503 6.00384 94.9166 6.07283L95.2616 7.53149L96.464 7.23581V9.9363H97.8142V6.90072C98.1099 6.82187 98.4056 6.75288 98.6914 6.67403L98.5436 5.35336ZM104.083 5.29422H103.245V4.73244H101.826V5.29422H98.7998V6.60504H100.022L99.1743 7.13726C99.5686 7.60048 100.052 8.2411 100.249 8.65505L101.372 7.91586C101.165 7.54134 100.732 7.01899 100.347 6.60504H101.826V8.35937C101.826 8.4875 101.776 8.51707 101.628 8.51707C101.471 8.51707 100.919 8.51707 100.495 8.49735C100.672 8.89159 100.87 9.49279 100.919 9.90673C101.658 9.90673 102.239 9.87717 102.673 9.66034C103.127 9.44351 103.245 9.06899 103.245 8.38894V6.60504H104.083V5.29422ZM96.6315 17.2882H98.1198V18.3329H96.6315V17.2882ZM97.627 20.2647C97.6467 20.038 97.6664 19.8211 97.6763 19.5945H99.4996V16.0365H95.3404V19.5945H96.2767C96.2077 21.1615 96.0402 22.8173 94.7491 23.8817C95.094 24.1183 95.4981 24.5815 95.7051 24.9363C96.7498 24.0394 97.2229 22.8173 97.4693 21.5065H98.2479C98.1888 22.8567 98.1099 23.4284 97.9818 23.5861C97.8931 23.6945 97.7945 23.7142 97.6565 23.7142C97.4791 23.7142 97.1342 23.7142 96.7695 23.6748C96.9765 24.0099 97.1243 24.5322 97.144 24.9067C97.6073 24.9166 98.0508 24.9067 98.3267 24.8575C98.652 24.8082 98.8984 24.7096 99.1251 24.4238C99.401 24.0788 99.4996 23.1031 99.5883 20.7673C99.5981 20.6096 99.608 20.2647 99.608 20.2647H97.627ZM101.49 16.7856H100.101V22.4231H101.49V16.7856ZM102.377 15.7803V23.2411C102.377 23.4284 102.299 23.4875 102.111 23.4875C101.895 23.4875 101.244 23.4875 100.623 23.4579C100.83 23.862 101.057 24.5322 101.116 24.9462C102.023 24.9462 102.732 24.8969 103.196 24.6702C103.649 24.4337 103.797 24.0493 103.797 23.251V15.7803H102.377ZM96.9765 34.5353V36.2798H98.2676V30.6029H96.9765V31.963H96.4246V30.8394H95.2419V33.0372H96.9765V33.4413H94.8871V34.5353H95.3601C95.3306 34.8901 95.2222 35.5111 94.7688 35.8757C95.0743 36.0038 95.6065 36.2897 95.8431 36.4671C96.4541 35.9546 96.5921 34.9985 96.6118 34.5353H96.9765ZM100.229 33.6779C100.741 33.5695 101.224 33.4315 101.668 33.2541V33.6779H100.229ZM102.239 31.8053C102.072 31.963 101.875 32.1009 101.668 32.2192C101.53 32.0812 101.382 31.9433 101.224 31.8053H102.239ZM104.171 37.9947V36.8317H102.644L102.88 36.5952C102.713 36.4276 102.427 36.2108 102.151 36.0137C102.299 35.994 102.427 35.9546 102.555 35.9053C102.92 35.7476 103.018 35.5012 103.018 34.969V34.5747H104.063V33.6779H103.018V33.0964H102.033C102.831 32.712 103.471 32.1798 103.895 31.3913L103.156 31.0267L102.939 31.0661H101.826C101.954 30.9774 102.082 30.8788 102.2 30.7704L101.067 30.5142C100.554 30.8788 99.677 31.1745 98.5041 31.3716C98.7308 31.5392 99.0561 31.9137 99.1941 32.1601C99.5193 32.0812 99.815 31.9925 100.101 31.894C100.367 32.1108 100.633 32.3671 100.84 32.6036C100.17 32.85 99.3813 33.0077 98.5436 33.0865C98.6816 33.2344 98.8491 33.461 98.9772 33.6779H98.514V34.5747H99.3813L98.9969 34.8606C99.332 35.0971 99.7361 35.4618 99.9037 35.718L100.83 35.0084C100.722 34.8803 100.564 34.7226 100.377 34.5747H101.668V34.9197C101.668 35.0183 101.628 35.038 101.53 35.0478C101.431 35.0478 101.086 35.0478 100.84 35.0281C100.978 35.3238 101.136 35.7279 101.185 36.0531C101.313 36.0531 101.441 36.0531 101.559 36.0531L101.185 36.4079C101.352 36.5361 101.55 36.6839 101.737 36.8317H100.189C100.189 36.7824 100.189 36.7332 100.189 36.6839V35.9447H98.7703V36.6346C98.7703 36.6937 98.7703 36.7627 98.7604 36.8317H94.8476V37.9947H97.8241C97.2229 38.3397 96.2767 38.655 94.7885 38.862C95.0645 39.1675 95.4193 39.6899 95.5868 40.0151C98.1592 39.6209 99.332 38.8226 99.8347 37.9947H100.052L99.7361 38.5171C100.939 38.9212 102.722 39.5618 103.58 39.956L104.211 38.8423C103.629 38.6058 102.683 38.2805 101.776 37.9947H104.171ZM100.209 32.1108C99.6868 32.1502 99.263 32.1896 98.8688 32.2192L98.9772 32.8993C99.401 32.85 99.7953 32.8007 100.229 32.7416L100.209 32.1108Z" fill="white"/>
<path d="M13.085 0H9.09717V34.1615H13.085V0Z" fill="white"/>
<path d="M42.3706 5.96277H60.1913L58.4466 9.56525H46.7323V34.1615H42.3706V5.96277Z" fill="white"/>
<path d="M7.35253 7.45342H0.623047C0.747667 6.8323 0.872287 6.21118 1.37077 5.71429C1.74463 5.21739 2.49235 4.59627 3.48931 3.85093C4.11241 3.35404 4.61089 3.10559 4.73551 2.85714C4.98475 2.6087 5.10937 2.36025 5.10937 2.23602C5.10937 1.98758 4.98475 1.86335 4.86013 1.61491C4.61089 1.49068 4.36165 1.36646 4.11241 1.36646C3.86317 1.36646 3.61393 1.49068 3.36469 1.61491C3.24007 1.73913 3.11545 2.1118 2.99083 2.48447L0.747667 2.36025C0.872287 1.73913 0.996907 1.36646 1.24615 0.993789C1.49539 0.621118 1.86925 0.372671 2.24311 0.248447C2.74159 0.124224 3.24007 0 4.11241 0C4.86013 0 5.48323 0.124224 5.98171 0.248447C6.48019 0.372671 6.72943 0.621118 6.97867 0.993789C7.22791 1.36646 7.35253 1.73913 7.35253 2.1118C7.35253 2.6087 7.22791 2.98137 6.97867 3.35404C6.72943 3.72671 6.10633 4.2236 5.35861 4.7205C4.86013 4.96894 4.61089 5.21739 4.36165 5.34162C4.23703 5.46584 4.11241 5.59006 3.86317 5.71429H7.35253V7.45342Z" fill="white"/>
<path d="M7.35253 25.3416H0.623047C0.747667 24.7205 0.996907 24.2236 1.37077 23.6025C1.74463 23.1056 2.49235 22.4845 3.61393 21.7391C4.23703 21.2422 4.73551 20.9938 4.86013 20.7453C4.98475 20.4969 5.10937 20.2484 5.10937 20.1242C5.10937 19.8758 4.98475 19.7515 4.86013 19.5031C4.73551 19.3789 4.48627 19.2546 4.11241 19.2546C3.86317 19.2546 3.61393 19.3789 3.36469 19.5031C3.24007 19.6273 3.11545 20 2.99083 20.3727L0.747667 20.2484C0.872287 19.6273 0.996907 19.2546 1.24615 18.882C1.49539 18.5093 1.86925 18.2609 2.24311 18.1366C2.61697 18.0124 3.24007 17.8882 3.98779 17.8882C4.73551 17.8882 5.35861 18.0124 5.85709 18.1366C6.35557 18.2609 6.60481 18.5093 6.85405 18.882C7.10329 19.2546 7.22791 19.6273 7.22791 20C7.22791 20.4969 7.10329 20.8696 6.85405 21.2422C6.60481 21.6149 5.98171 22.1118 5.23399 22.6087C4.73551 22.8571 4.48627 23.1056 4.36165 23.2298C4.23703 23.354 3.98779 23.4782 3.86317 23.7267H7.35253V25.3416Z" fill="white"/>
<path d="M5.85704 26.8323V34.2857H3.48925V29.441C3.11539 29.5652 2.86615 29.8136 2.49229 29.9379C2.11843 30.0621 1.74457 30.1863 1.24609 30.4348V28.8199C1.99381 28.5714 2.49229 28.1987 2.99077 27.9503C3.36463 27.7018 3.73849 27.2049 3.98774 26.8323H5.85704Z" fill="white"/>
<path d="M4.11246 8.81982C1.8693 8.81982 0 10.559 0 12.795C0 15.031 1.8693 16.8944 4.11246 16.8944C6.35562 16.8944 8.22492 15.031 8.22492 12.795C8.22492 10.559 6.35562 8.81982 4.11246 8.81982Z" fill="white"/>
<path d="M67.544 6.45966V33.7889C67.544 34.1615 67.4193 34.2857 67.0455 34.2857H64.4285C64.0546 34.2857 63.93 34.1615 63.93 33.7889V10.8075C63.93 10.4348 63.8054 10.3106 63.4315 10.3106H62.6838C62.3099 10.3106 62.1853 10.0621 62.3099 9.68948L63.3069 6.33544C63.4315 6.08699 63.5561 5.96277 63.8054 5.96277H66.9209C67.2947 5.96277 67.544 6.08699 67.544 6.45966Z" fill="white"/>
<path d="M79.8813 13.0435H77.3889C77.0151 13.0435 76.8905 12.9192 76.8905 12.5466V10.3106C76.8905 10.0621 76.7658 9.93788 76.6412 9.81366C76.5166 9.68943 76.392 9.68943 76.1427 9.68943H74.1488C73.8996 9.68943 73.7749 9.68943 73.6503 9.81366C73.5257 9.93788 73.4011 10.0621 73.4011 10.3106V17.6397C73.4011 17.8882 73.5257 18.1366 73.6503 18.2609C73.7749 18.3851 73.8996 18.3851 74.1488 18.3851H78.2613C78.5105 18.3851 78.7598 18.5093 78.8844 18.6335L80.1306 19.8758C80.2552 20 80.3798 20.2484 80.3798 20.4969V32.0497C80.3798 32.2981 80.2552 32.5466 80.1306 32.6708L78.8844 33.913C78.7598 34.0373 78.5105 34.1615 78.2613 34.1615H71.9057C71.6564 34.1615 71.4072 34.0373 71.2826 33.913L70.0364 32.6708C69.7871 32.4224 69.7871 32.2981 69.7871 32.0497V8.07453C69.7871 7.82608 69.9117 7.57763 70.0364 7.45341L71.2826 6.08695C71.4072 5.96272 71.6564 5.8385 71.9057 5.8385H78.2613C78.5105 5.8385 78.6351 5.96272 78.8844 6.08695L80.1306 7.45341C80.2552 7.57763 80.3798 7.82608 80.3798 8.07453V12.5466C80.3798 12.9192 80.1306 13.0435 79.8813 13.0435ZM76.8905 29.8137V22.6087C76.8905 22.3602 76.7658 22.1118 76.6412 21.9876C76.5166 21.8633 76.392 21.8633 76.1427 21.8633H74.1488C73.8996 21.8633 73.7749 21.8633 73.6503 21.9876C73.5257 22.1118 73.4011 22.3602 73.4011 22.6087V29.8137C73.4011 30.0621 73.5257 30.3106 73.6503 30.4348C73.7749 30.559 73.8996 30.559 74.1488 30.559H76.0181C76.2674 30.559 76.392 30.559 76.5166 30.4348C76.7658 30.3106 76.8905 30.0621 76.8905 29.8137Z" fill="white"/>
<path d="M37.2617 0L34.52 3.60248H80.2556L82.0003 0H37.2617Z" fill="white"/>
<path d="M28.4132 0H33.7718L21.1852 16.3975L35.018 34.1615H29.5348L15.9512 16.5217L28.4132 0Z" fill="white"/>
<path d="M1.12147 36.2734C1.24609 36.2734 1.24609 36.2734 1.12147 36.2734C1.24609 36.2734 1.24609 36.3976 1.12147 36.2734C1.12147 36.3976 0.996852 36.5218 0.996852 36.5218H1.86919V36.7703H1.49533C1.49533 36.8945 1.61995 37.0187 1.61995 37.143H1.24609C1.24609 37.0187 1.12147 36.8945 1.12147 36.7703H0.872232C0.747612 36.8945 0.622992 37.143 0.498372 37.2672L0.124512 37.143C0.373752 36.7703 0.622992 36.5218 0.747612 36.1492L1.12147 36.2734ZM3.48925 37.3914V38.3852H2.24305V38.7579H3.73849C3.73849 39.1305 3.73849 39.5032 3.61387 39.5032C3.61387 39.6274 3.48925 39.6274 3.36463 39.7517C3.24001 39.7517 2.99077 39.8759 2.74153 39.8759L2.61691 39.5032C2.86615 39.5032 3.11539 39.5032 3.11539 39.5032C3.11539 39.5032 3.24001 39.5032 3.24001 39.379C3.24001 39.379 3.24001 39.2548 3.36463 39.1305H2.24305V40.1243H1.86919V39.379C1.74457 39.5032 1.49533 39.6274 1.37071 39.7517C1.24609 39.6274 0.996852 39.7516 0.622992 39.8759L0.249132 39.6274C0.622992 39.5032 0.872232 39.379 1.24609 39.2548C1.37071 39.1305 1.49533 39.1305 1.74457 39.0063H0.498372C0.622992 38.7579 0.622992 38.3852 0.747612 38.1367H1.99381V37.7641H0.747612V37.5156H3.48925V37.3914ZM1.86919 38.261H0.996852C0.996852 38.3852 0.996852 38.5094 0.872232 38.6336H1.86919V38.261ZM2.74153 36.2734C2.86615 36.2734 2.86615 36.2734 2.74153 36.2734C2.86615 36.2734 2.86615 36.3976 2.74153 36.2734C2.74153 36.3976 2.61691 36.5218 2.61691 36.5218H3.73849V36.7703H3.11539C3.24001 36.8945 3.24001 37.0187 3.24001 37.143H2.86615C2.86615 37.0187 2.74153 36.8945 2.74153 36.7703H2.49229C2.49229 37.0187 2.36767 37.143 2.24305 37.2672L1.86919 37.143C2.11843 36.8945 2.24305 36.5218 2.36767 36.1492L2.74153 36.2734ZM2.24305 38.0125H3.11539V37.6399H2.24305V38.0125Z" fill="white"/>
<path d="M6.35541 37.6398V36.2733H6.72927C6.85389 36.2733 6.85389 36.2733 6.85389 36.2733C6.85389 36.2733 6.85389 36.2733 6.72927 36.3975V37.5156H8.22471V37.8882H6.72927V39.8758H6.35541V37.8882H4.73535V37.5156H6.35541V37.6398Z" fill="white"/>
<path d="M10.5925 38.0125C10.5925 38.1367 10.5925 38.1367 10.5925 38.0125C10.7171 38.1367 10.5925 38.1367 10.5925 38.1367C10.4679 38.5094 10.3433 38.8821 10.2186 39.0063C10.094 39.2548 9.84478 39.5032 9.59554 39.7517L9.22168 39.5032C9.3463 39.379 9.47092 39.2548 9.59554 39.1305C9.72016 39.0063 9.84478 38.8821 9.9694 38.6336C9.9694 38.5094 10.094 38.261 10.094 38.0125H10.5925ZM11.091 36.2734C11.2156 36.2734 11.2156 36.2734 11.091 36.2734C11.2156 36.2734 11.2156 36.3976 11.2156 36.3976V37.0187H12.711V37.3914H9.22168V37.0187H10.7171V36.1492L11.091 36.2734ZM12.0879 38.7579C12.2126 39.0063 12.4618 39.2548 12.711 39.6274L12.2126 39.8759C11.9633 39.6274 11.8387 39.379 11.7141 39.1305C11.5895 38.8821 11.4648 38.5094 11.3402 38.1367L11.7141 38.0125C11.8387 38.261 11.9633 38.5094 12.0879 38.7579Z" fill="white"/>
<path d="M14.3312 38.6336C14.3312 39.0062 14.2066 39.3789 13.9574 39.8758L13.5835 39.7516C13.7081 39.2547 13.8327 38.882 13.9574 38.5093C14.082 38.0124 14.082 37.5155 14.082 37.0187V36.2733H17.1975V37.2671H14.4558C14.3312 37.764 14.3312 38.2609 14.3312 38.6336ZM14.4558 37.0187H16.8236V36.646H14.4558V37.0187ZM14.9543 37.764C15.0789 37.764 15.0789 37.764 14.9543 37.764C15.0789 37.764 15.0789 37.8882 14.9543 37.8882V39.2547H16.699V37.6398H16.9482H17.0729C17.0729 37.6398 17.0729 37.6398 17.0729 37.764V39.7516H16.699V39.5031H14.9543V39.7516H14.5805V37.6398L14.9543 37.764ZM15.8267 38.0124V37.5156H16.0759H16.2005C16.2005 37.5156 16.2005 37.5155 16.2005 37.6398V38.0124H16.8236V38.2609H16.2005V38.6336H16.699V38.882H15.3282V38.6336H15.8267V38.2609H15.2036V38.0124H15.8267Z" fill="white"/>
<path d="M21.8085 36.2733C21.9331 36.2733 21.9331 36.2733 21.8085 36.2733C21.9331 36.3975 21.9331 36.3975 21.8085 36.3975V36.646H23.4285V37.0187H22.0577C22.307 37.2671 22.5562 37.3913 22.6808 37.3913C22.9301 37.5156 23.1793 37.6398 23.5532 37.764L23.1793 38.1367C22.8054 38.0124 22.5562 37.8882 22.307 37.6398C22.1823 37.5155 21.9331 37.3913 21.8085 37.2671V37.6398H21.4346V37.2671C21.1854 37.5156 21.0608 37.6398 20.8115 37.764C20.5623 37.8882 20.313 38.0124 19.9392 38.1367L19.6899 37.8882C20.0638 37.764 20.4377 37.6398 20.6869 37.5156C20.8115 37.3913 21.0608 37.2671 21.1854 37.1429H19.9392V36.7702H21.5592V36.2733H21.8085ZM22.4316 37.8882L22.5562 38.0124C22.5562 38.0124 22.5562 38.1367 22.4316 38.1367L21.8085 38.7578V38.882H23.3039V39.2547H21.8085V39.6274C21.8085 39.7516 21.8085 39.8758 21.6839 40C21.5592 40.1242 21.31 40.1242 20.9361 40.1242L20.8115 39.7516H21.1854C21.31 39.7516 21.4346 39.7516 21.4346 39.6274V39.3789H19.9392V39.0062H21.6839V38.5093H21.8085L22.0577 38.1367H20.6869V37.8882H22.1823H22.4316C22.4316 37.764 22.4316 37.764 22.4316 37.8882Z" fill="white"/>
<path d="M27.9147 36.2733V39.7516H27.5408H24.7992V39.8758H24.4253V36.3975H27.9147V36.2733ZM27.5408 39.3789V36.646H24.7992V39.3789H27.5408ZM26.2946 37.1429C26.2946 37.0187 26.2946 36.8944 26.2946 36.7702L26.5438 36.8944C26.5438 36.8944 26.5438 36.8944 26.5438 37.0187C26.5438 37.1429 26.5438 37.1429 26.5438 37.2671H27.0423C26.9177 37.1429 26.7931 37.0187 26.7931 37.0187L27.0423 36.7702C27.1669 36.8944 27.2916 36.8944 27.4162 37.0187L27.1669 37.1429H27.4162V37.3913H26.5438C26.5438 37.6398 26.5438 38.0124 26.6685 38.1367V38.2609C26.7931 38.0124 26.9177 37.764 26.9177 37.5156L27.1669 37.6398C27.1669 37.6398 27.1669 37.6398 27.1669 37.764C27.0423 38.1367 26.9177 38.3851 26.7931 38.6336V38.7578C26.7931 38.882 26.9177 38.882 26.9177 38.882C26.9177 38.882 27.0423 38.7578 27.0423 38.5093L27.2916 38.7578C27.1669 39.1305 27.0423 39.2547 26.9177 39.2547C26.7931 39.2547 26.6685 39.1305 26.5438 39.0062L26.4192 38.882C26.2946 39.0062 26.17 39.1305 25.9207 39.2547L25.6715 39.0062C25.7961 38.882 26.0454 38.7578 26.17 38.7578L26.2946 38.6336C26.2946 38.5093 26.17 38.3851 26.17 38.2609C26.17 38.0124 26.0454 37.764 26.0454 37.3913H24.7992V37.1429H26.2946ZM26.17 38.882C25.9207 38.882 25.6715 39.0062 25.173 39.1305C25.173 39.1305 25.173 39.2547 25.0484 39.2547L24.9238 38.882C25.2976 38.882 25.6715 38.7578 26.0454 38.7578V38.882H26.17ZM26.17 37.6398V38.5093H25.173V37.6398H26.17ZM25.7961 37.8882H25.4223V38.2609H25.7961V37.8882Z" fill="white"/>
<path d="M29.5347 36.2733C29.5347 36.2733 29.6593 36.2733 29.5347 36.2733C29.6593 36.3975 29.6593 36.3975 29.5347 36.3975V38.1367H30.5317V39.8758H30.1578V39.0062H29.6593C29.6593 39.1305 29.6593 39.2547 29.6593 39.3789C29.6593 39.5031 29.5347 39.6274 29.5347 39.7516C29.4101 39.8758 29.4101 39.8758 29.1609 40L28.9116 39.7516C29.0362 39.7516 29.1609 39.6274 29.1609 39.6274C29.2855 39.6274 29.2855 39.5031 29.2855 39.5031C29.2855 39.3789 29.2855 39.3789 29.4101 39.2547H28.9116V38.882H30.1578V38.6336H29.1609V36.5218L29.5347 36.2733ZM31.5286 36.2733V37.8882H29.9086V36.2733H31.5286ZM31.1548 36.7702V36.5218H30.1578V36.7702H31.1548ZM31.1548 37.2671V37.0187H30.1578V37.2671H31.1548ZM31.1548 37.3913H30.1578V37.6398H31.1548V37.3913ZM31.7779 36.2733H32.1517H32.2764C32.2764 36.2733 32.2764 36.2733 32.2764 36.3975V38.3851H31.2794V38.6336H32.5256V39.0062H32.1517V39.8758H31.7779V39.0062H31.2794V39.8758H30.9055V38.1367H31.7779V36.2733Z" fill="white"/>
<path d="M34.769 36.5218C34.6444 36.5218 34.5197 36.646 34.3951 36.646V37.3914H35.0182V37.764H34.5197C34.6444 38.0125 34.8936 38.2609 35.0182 38.5094L34.769 38.7578C34.6444 38.6336 34.5197 38.3852 34.3951 38.1367V39.8758H34.0213V38.2609C34.0213 38.3851 33.8966 38.5094 33.8966 38.5094C33.772 38.7578 33.6474 38.882 33.5228 39.1305L33.1489 38.882C33.2735 38.7578 33.3982 38.5094 33.5228 38.2609C33.6474 38.1367 33.6474 37.8883 33.772 37.6398H33.1489V37.2671H33.8966V36.646C33.772 36.646 33.6474 36.7702 33.5228 36.7702L33.2735 36.3976C33.5228 36.3976 33.772 36.3976 34.0213 36.2734C34.1459 36.2734 34.3951 36.1491 34.6444 36.0249L34.8936 36.2734L34.769 36.5218C34.8936 36.5218 34.769 36.5218 34.769 36.5218ZM36.5137 36.2734C36.6383 36.2734 36.6383 36.2734 36.5137 36.2734C36.6383 36.3976 36.6383 36.3976 36.5137 36.3976V38.3852C36.6383 38.3852 36.7629 38.2609 36.8875 38.2609V38.6336L36.5137 38.7578V39.8758H36.1398V38.882L35.2675 39.1305C35.2675 39.2547 35.1428 39.2547 35.1428 39.2547C35.1428 39.2547 35.1428 39.2547 35.1428 39.1305L35.0182 38.7578C35.3921 38.6336 35.8906 38.6336 36.2644 38.5094V36.1491L36.5137 36.2734ZM35.8906 38.0125L35.6413 38.2609C35.3921 38.0125 35.2675 37.8883 35.1428 37.764L35.3921 37.5156C35.5167 37.764 35.7659 37.8883 35.8906 38.0125ZM36.0152 37.0187L35.7659 37.2671C35.5167 37.0187 35.3921 36.8945 35.1428 36.7702L35.3921 36.5218C35.6413 36.7702 35.8906 36.8945 36.0152 37.0187Z" fill="white"/>
<path d="M38.5075 36.8945V36.1492H38.8813H39.006C39.006 36.1492 39.006 36.2734 38.8813 36.2734V36.7703H39.3798V37.2672H38.8813V38.1367C39.006 38.0125 39.2552 38.0125 39.3798 37.8883V38.261L38.8813 38.5094V39.5032C38.8813 39.6274 38.8813 39.7517 38.7567 39.8759C38.6321 40.0001 38.5075 40.0001 38.1336 40.0001L38.009 39.6274H38.2582C38.3829 39.6274 38.3829 39.6274 38.3829 39.5032V38.7579L38.009 38.8821C38.009 39.0063 37.8844 39.0063 37.8844 39.0063C37.8844 39.0063 37.8844 39.0063 37.8844 38.8821L37.7598 38.5094C38.009 38.3852 38.2582 38.3852 38.5075 38.261V37.2672H37.8844V36.8945H38.5075ZM40.2522 36.7703V36.1492H40.626C40.7506 36.1492 40.7506 36.1492 40.7506 36.1492C40.7506 36.1492 40.7506 36.1492 40.626 36.2734V36.6461H41.4984V37.0187H40.626V37.6399H41.1245H41.2491C41.2491 37.6399 41.2491 37.6399 41.3737 37.6399L41.4984 37.7641C41.4984 37.7641 41.4984 37.7641 41.4984 37.8883C41.4984 37.8883 41.4984 37.8883 41.3737 38.0125C41.2491 38.5094 40.9999 38.8821 40.8753 39.1305C41.1245 39.2548 41.3737 39.5032 41.7476 39.6274L41.4984 39.8759C41.1245 39.7517 40.8753 39.5032 40.7506 39.379C40.5014 39.6274 40.1275 39.7517 39.7537 39.8759L39.5044 39.5032C39.7537 39.379 40.0029 39.379 40.1275 39.2548C40.2522 39.2548 40.3768 39.1305 40.5014 39.0063L40.3768 38.8821C40.1275 38.6336 40.0029 38.261 40.0029 37.8883H39.7537V37.5156H40.5014V36.8945H39.7537V36.5218H40.2522V36.7703ZM40.3768 38.8821C40.5014 38.8821 40.5014 38.8821 40.3768 38.8821C40.5014 39.0063 40.5014 38.8821 40.3768 38.8821C40.626 38.7579 40.7506 38.5094 40.8753 38.0125H40.0029C40.1275 38.3852 40.2522 38.6336 40.3768 38.8821Z" fill="white"/>
<path d="M43.3676 36.7703C43.2429 36.7703 43.1183 36.8945 42.9937 36.8945V37.2672H43.4922V37.5156H42.9937V37.8883H43.4922V38.1367H42.9937V38.5094H43.7414V37.6399H43.9907H44.1153C44.1153 37.6399 44.1153 37.6399 43.9907 37.7641V38.5094H44.2399V37.3914H43.7414V36.1492H43.9907H44.1153C44.1153 36.1492 44.1153 36.1492 43.9907 36.2734V36.3976H44.4891V36.6461H43.9907V36.8945H44.4891V38.3852H45.2369V38.0125H44.7384V37.7641H45.2369V37.3914H44.7384V37.143H45.2369V36.7703H44.863V36.3976H45.7353V38.5094H46.1092V38.8821H43.6168L43.866 39.0063C43.866 39.0063 43.866 39.0063 43.7414 39.0063C43.3676 39.2548 43.1183 39.5032 42.7445 39.6274H42.3706C42.7445 39.5032 43.1183 39.2548 43.3676 39.0063H42.3706V38.6336H42.6198V36.5218L42.8691 36.6461H42.9937C43.1183 36.6461 43.2429 36.5218 43.2429 36.5218L43.4922 36.7703C43.4922 36.7703 43.4922 36.7703 43.4922 36.8945L43.3676 36.7703C43.4922 36.7703 43.4922 36.7703 43.3676 36.7703ZM45.9846 39.6274L45.6107 39.8759C45.2369 39.6274 44.9876 39.379 44.6138 39.1305L44.863 39.0063C45.2369 39.2548 45.6107 39.379 45.9846 39.6274Z" fill="white"/>
<path d="M48.8509 36.2733C48.9755 36.2733 48.9755 36.2733 48.8509 36.2733C48.9755 36.3975 48.9755 36.3975 48.8509 36.3975V36.646C48.8509 36.8944 48.8509 37.2671 48.8509 37.5156C48.9755 37.8882 49.2247 38.2609 49.3493 38.5093C49.5986 38.882 49.9724 39.2547 50.5955 39.6274L50.0971 39.8758C49.5986 39.3789 49.2247 39.0062 48.9755 38.6336C48.8509 38.5093 48.7262 38.2609 48.7262 38.0124V38.1367C48.6016 38.5093 48.3524 38.7578 48.1031 39.1305C47.8539 39.3789 47.6047 39.6274 47.2308 39.7516L46.8569 39.5031C47.2308 39.2547 47.48 39.1305 47.6047 39.0062C47.8539 38.7578 48.1031 38.5093 48.2278 38.2609C48.477 37.8882 48.477 37.3913 48.477 36.7702V36.646C48.477 36.5218 48.477 36.5218 48.477 36.3975L48.8509 36.2733Z" fill="white"/>
<path d="M53.3373 36.2734C53.3373 36.2734 53.4619 36.2734 53.3373 36.2734C53.4619 36.3976 53.4619 36.3976 53.3373 36.3976V36.7703H54.8327V37.143H54.3343C54.3343 37.6399 54.085 38.1367 53.9604 38.3852C53.8358 38.5094 53.7112 38.6336 53.5865 38.7579C53.9604 39.0063 54.3343 39.2548 54.9574 39.5032L54.5835 39.8759C54.085 39.6274 53.5865 39.379 53.2127 39.1305C53.0881 39.1305 53.0881 39.2548 52.9634 39.2548C52.5896 39.5032 52.2157 39.6274 51.5926 39.8759L51.2188 39.5032C51.8419 39.379 52.3403 39.1305 52.5896 39.0063C52.7142 39.0063 52.7142 38.8821 52.8388 38.8821C52.7142 38.7579 52.5896 38.7579 52.5896 38.6336C52.2157 38.261 52.0911 37.7641 51.8419 37.143H51.2188V36.7703H52.7142V36.1492L53.3373 36.2734ZM53.0881 38.3852C53.2127 38.5094 53.2127 38.5094 53.3373 38.6336C53.4619 38.5094 53.4619 38.3852 53.5865 38.3852C53.8358 38.1367 53.9604 37.7641 53.9604 37.2672H52.3403C52.465 37.6399 52.7142 38.1367 53.0881 38.3852Z" fill="white"/>
<path d="M56.5775 37.0187V36.7702H56.8268H56.9514C56.9514 36.7702 56.9514 36.7702 56.9514 36.8945V37.0187H57.5745V37.2671H56.9514V37.3914H57.6991V37.6398H57.3253C57.4499 37.764 57.5745 37.8883 57.6991 37.8883L57.4499 38.0125C57.3252 38.0125 57.3253 37.8883 57.2006 37.8883V38.0125H56.8268V38.1367C57.076 38.1367 57.2006 38.1367 57.3253 38.1367V38.3851C57.076 38.3851 56.5775 38.5094 55.9544 38.5094V38.2609C56.2037 38.2609 56.4529 38.2609 56.5775 38.2609V38.1367H56.2037V38.0125C56.079 38.1367 56.0791 38.1367 55.9544 38.2609L55.7052 38.0125C55.8298 38.0125 55.9544 37.8883 56.079 37.8883C56.079 37.8883 56.2037 37.8883 56.2037 37.764H55.8298V37.5156H56.5775V37.2671H55.9544V37.0187H56.5775ZM56.9514 36.3976V36.1491H57.2006H57.3253C57.3253 36.1491 57.3253 36.1491 57.2006 36.2734H57.9484V36.0249H58.1976H58.3222C58.3222 36.0249 58.3222 36.0249 58.3222 36.1491H59.3192V36.3976H58.3222V36.646H57.9484V36.3976H57.3253V36.646H56.9514V36.3976H55.7052V36.1491H56.9514V36.3976ZM59.4438 39.0063V39.2547H58.6961C58.8207 39.3789 59.0699 39.5032 59.1946 39.7516L58.9453 40.0001C58.8207 39.8758 58.8207 39.8758 58.6961 39.7516C58.073 39.7516 57.2006 39.8758 56.079 39.8758C56.079 39.8758 56.0791 39.8758 55.9544 39.8758L55.8298 39.6274C55.9544 39.6274 56.2037 39.6274 56.3283 39.6274L56.7021 39.3789H55.5806V39.1305H59.4438V39.0063ZM56.5775 37.8883V37.764H56.8268H56.9514C56.9514 37.764 56.9514 37.764 56.9514 37.8883H57.2006C57.076 37.764 57.076 37.764 56.9514 37.6398H56.4529C56.3283 37.764 56.3283 37.764 56.2037 37.8883H56.5775ZM58.8207 38.5094V38.7578H56.3283V38.5094H58.8207ZM58.3222 39.2547H57.3253L56.9514 39.5032C57.4499 39.5032 57.9484 39.5032 58.4468 39.3789C58.4468 39.3789 58.3222 39.3789 58.3222 39.2547ZM58.1976 37.2671C58.1976 37.1429 58.1976 37.1429 58.1976 37.0187H58.4468H58.5715C58.5715 37.0187 58.5715 37.0187 58.4468 37.1429V37.2671H59.1946L59.0699 38.2609C59.0699 38.2609 59.0699 38.2609 59.1946 38.2609C59.1946 38.2609 59.1946 38.2609 59.3192 38.2609C59.3192 38.2609 59.3192 38.1367 59.3192 38.0125L59.5684 38.1367C59.5684 38.2609 59.5684 38.3852 59.4438 38.5094C59.4438 38.6336 59.3192 38.6336 59.1946 38.6336H58.9453C58.8207 38.6336 58.6961 38.5094 58.6961 38.3851L58.8207 37.6398H58.4468C58.4468 37.764 58.4468 37.8883 58.3222 38.0125C58.4468 38.0125 58.4468 38.1367 58.5715 38.1367L58.3222 38.3851C58.1976 38.2609 58.1976 38.2609 58.073 38.2609L57.9484 38.3851C57.8237 38.5094 57.6991 38.5094 57.5745 38.6336L57.3253 38.3851C57.4499 38.3851 57.5745 38.2609 57.6991 38.2609C57.8237 38.2609 57.8237 38.1367 57.8237 38.1367C57.6991 38.1367 57.5745 38.0125 57.5745 38.0125L57.6991 37.764C57.8237 37.764 57.8237 37.8883 57.9484 37.8883C57.9484 37.764 57.9483 37.764 58.073 37.6398H57.5745V37.2671H58.1976Z" fill="white"/>
<path d="M61.313 37.2672C61.313 37.2672 61.4376 37.2672 61.313 37.2672C61.4376 37.2672 61.313 37.2672 61.313 37.2672C61.313 37.3914 61.1884 37.5156 61.1884 37.6399C61.1884 37.6399 61.1884 37.7641 61.0637 37.7641V40.0001H60.6899V38.261L60.5653 38.3852L60.1914 38.1367C60.5653 37.8883 60.8145 37.5156 60.9391 37.143L61.313 37.2672ZM61.313 36.3976C61.313 36.3976 61.4376 36.3976 61.313 36.3976C61.4376 36.3976 61.4376 36.3976 61.313 36.3976C61.313 36.5218 61.1884 36.5218 61.1884 36.7703C61.0637 37.0187 60.8145 37.143 60.5653 37.3914L60.1914 37.143C60.5653 36.8945 60.8145 36.6461 60.9391 36.2734L61.313 36.3976ZM61.6868 37.6399C61.6868 37.6399 61.8115 37.6399 61.6868 37.6399C61.8115 37.6399 61.6868 37.7641 61.6868 37.6399C61.6868 38.261 61.6868 38.6336 61.5622 38.7579C61.5622 38.8821 61.4376 39.1305 61.4376 39.2548H61.0637C61.1884 39.0063 61.1884 38.8821 61.1884 38.7579C61.1884 38.5094 61.313 38.1367 61.313 37.6399H61.6868ZM61.8115 36.8945V36.1492H62.1853H62.3099C62.3099 36.1492 62.3099 36.1492 62.1853 36.2734V36.7703H62.6838V37.2672H62.1853V40.0001H61.8115V37.2672H61.313V37.0187H61.8115V36.8945ZM62.8084 36.6461L62.5592 36.8945C62.4346 36.7703 62.3099 36.6461 62.1853 36.5218L62.4346 36.2734C62.5592 36.3976 62.6838 36.5218 62.8084 36.6461ZM62.6838 37.6399C62.6838 37.6399 62.6838 37.7641 62.6838 37.6399V38.7579C62.6838 38.8821 62.6838 38.8821 62.8084 38.8821C62.8084 38.8821 62.8084 38.8821 62.933 38.8821C62.933 38.8821 62.933 38.7579 62.933 38.5094L63.1823 38.6336C63.1823 38.8821 63.0577 39.0063 63.0577 39.1305C63.0577 39.1305 62.933 39.2548 62.8084 39.2548C62.6838 39.2548 62.5592 39.2548 62.4346 39.1305C62.4346 39.1305 62.3099 39.0063 62.3099 38.8821V37.6399H62.6838ZM63.93 37.2672V37.6399H63.6808V39.6274C63.6808 39.7517 63.6808 39.8759 63.5561 39.8759C63.4315 40.0001 63.3069 40.0001 62.933 40.0001L62.8084 39.6274H63.1823C63.3069 39.6274 63.3069 39.6274 63.3069 39.5032V37.6399H62.8084V37.2672H63.93ZM63.8054 36.5218V36.8945H62.933V36.5218H63.8054Z" fill="white"/>
<path d="M65.3009 39.0063C65.3009 39.2547 65.1763 39.5032 65.0517 39.8758L64.6778 39.7516C64.8025 39.5032 64.9271 39.2547 64.9271 39.0063C65.0517 38.7578 65.0517 38.3852 65.0517 38.1367V37.6398H66.921V38.882H65.3009C65.3009 38.882 65.3009 38.882 65.3009 39.0063ZM66.1733 36.2734C66.2979 36.2734 66.2979 36.2734 66.1733 36.2734C66.2979 36.3976 66.2979 36.3976 66.1733 36.2734C66.1733 36.3976 66.1733 36.3976 66.1733 36.2734C66.2979 36.5218 66.5471 36.7702 66.6718 36.7702C66.7964 36.8945 67.0456 36.8945 67.1702 37.0187L66.921 37.3914C66.7964 37.2671 66.5471 37.2671 66.4225 37.1429V37.2671H65.3009V37.0187C65.1763 37.1429 64.9271 37.2671 64.8025 37.2671L64.5532 37.0187C65.0517 36.7702 65.4256 36.5218 65.7994 36.0249L66.1733 36.2734ZM65.4256 38.2609C65.4256 38.3851 65.4256 38.3852 65.4256 38.5094H66.6718V38.2609H65.4256ZM66.921 38.882V39.8758H66.5471V39.7516H65.6748V39.8758H65.3009V38.882H66.921ZM65.4256 38.0125H66.6718V37.764H65.4256V38.0125ZM66.4225 37.0187C66.2979 36.8945 66.1733 36.7702 65.924 36.646C65.7994 36.7702 65.6748 36.8945 65.4256 37.0187H66.4225ZM66.6718 39.5032V39.2547H65.7994V39.5032H66.6718ZM67.6687 36.7702C67.6687 36.7702 67.7933 36.8945 67.6687 36.7702C67.7933 36.8945 67.7933 36.8945 67.6687 36.8945V39.0063H67.2949V36.7702H67.6687ZM68.4164 36.2734C68.4164 36.3976 68.4164 36.3976 68.4164 36.2734C68.5411 36.3976 68.4164 36.3976 68.4164 36.3976V39.3789C68.4164 39.5032 68.4164 39.6274 68.2918 39.7516C68.1672 39.8758 68.0426 39.8758 67.6687 39.8758L67.5441 39.5032H67.918C68.0426 39.5032 68.0426 39.5032 68.0426 39.3789V36.2734H68.4164Z" fill="white"/>
<path d="M69.9118 39.0063C70.0364 39.1305 70.0364 39.1305 69.9118 39.0063C70.0364 39.1305 70.0364 39.1305 69.9118 39.0063C69.7872 39.379 69.6625 39.6274 69.4133 39.7517L69.1641 39.6274C69.4133 39.379 69.5379 39.1305 69.6625 38.8821L69.9118 39.0063ZM71.2826 36.1492C71.2826 36.1492 71.2826 36.2734 71.2826 36.1492C71.4072 36.2734 71.4072 36.2734 71.2826 36.2734V36.5218H72.778V36.7703H72.1549C72.0303 36.8945 72.0303 37.0187 71.9057 37.143H72.9027V37.3914H69.4133V37.143H70.5349C70.5349 37.0187 70.4103 36.8945 70.4103 36.7703H69.6625V36.5218H71.0334V36.1492H71.2826ZM72.4042 37.6399V38.8821H69.9118V37.6399H72.4042ZM72.0303 38.1367V38.0125H70.161V38.1367H72.0303ZM72.0303 38.3852H70.161V38.5094H72.0303V38.3852ZM70.6595 39.0063C70.7841 39.1305 70.6595 39.1305 70.6595 39.1305C70.6595 39.1305 70.6595 39.1305 70.6595 39.2548C70.6595 39.379 70.6595 39.379 70.6595 39.5032C70.6595 39.5032 70.7841 39.6274 70.9087 39.6274H71.6565C71.7811 39.6274 71.9057 39.6274 71.9057 39.5032C71.9057 39.5032 72.0303 39.379 72.0303 39.1305L72.4042 39.2548C72.4042 39.5032 72.2796 39.6274 72.1549 39.7517C72.0303 39.8759 72.0303 39.8759 71.9057 39.8759H70.7841C70.6595 39.8759 70.5349 39.8759 70.4103 39.7517C70.2856 39.6274 70.2856 39.5032 70.2856 39.379V38.8821L70.6595 39.0063ZM71.4072 37.143C71.5318 37.0187 71.5318 36.8945 71.6565 36.7703H70.5349C70.6595 36.8945 70.6595 37.0187 70.6595 37.143H71.4072ZM71.6565 39.2548L71.4072 39.5032C71.2826 39.379 71.158 39.2548 71.0334 39.1305L71.2826 39.0063C71.2826 39.0063 71.5318 39.1305 71.6565 39.2548ZM73.0273 39.6274L72.6534 39.7517C72.5288 39.5032 72.2796 39.2548 72.1549 39.1305L72.4042 39.0063C72.6534 39.1305 72.778 39.2548 73.0273 39.6274Z" fill="white"/>
<path d="M75.2705 37.764V38.7578H74.8966V39.3789C75.0212 39.3789 75.1458 39.2547 75.3951 39.1305V39.3789L74.772 39.7516C74.772 39.8758 74.6474 39.8758 74.6474 39.8758L74.5227 39.6274H74.6474V38.882H74.3981C74.3981 39.1305 74.2735 39.3789 74.2735 39.5031C74.1489 39.6274 74.1489 39.8758 73.8996 40L73.6504 39.7516C73.775 39.6274 73.8996 39.5031 73.8996 39.3789C73.8996 39.2547 74.0243 39.1305 74.0243 38.882H73.775V37.8882H75.2705V37.764ZM74.772 36.2733C74.8966 36.3975 74.8966 36.3975 74.772 36.3975V36.646H75.3951V36.8944H75.1458L75.0212 37.2671H75.3951V37.5156H73.6504V37.2671H74.0243C74.0243 37.1429 73.8996 37.0187 73.8996 36.8944H73.6504V36.646H74.2735V36.2733H74.772ZM74.8966 38.0124H74.1489V38.5093H74.8966V38.0124ZM74.772 37.2671L74.8966 36.8944H74.3981C74.3981 37.0187 74.5227 37.1429 74.5227 37.2671H74.772ZM77.1398 37.764V38.7578H76.7659V39.3789C76.7659 39.5031 76.7659 39.5031 76.8905 39.5031H77.0151H77.1398C77.1398 39.5031 77.1398 39.3789 77.1398 39.2547L77.5136 39.3789C77.5136 39.6274 77.389 39.7516 77.389 39.7516C77.2644 39.7516 77.2644 39.8758 77.1398 39.8758H76.8905C76.6413 39.8758 76.5167 39.7516 76.5167 39.6274V38.882H76.2674C76.2674 39.1305 76.2674 39.2547 76.1428 39.3789C76.0182 39.5031 76.0182 39.6274 75.8936 39.7516C75.7689 39.8758 75.6443 39.8758 75.5197 40L75.1458 39.7516C75.2705 39.7516 75.3951 39.6274 75.5197 39.5031C75.6443 39.3789 75.6443 39.3789 75.7689 39.2547C75.7689 39.1305 75.8936 39.0062 75.8936 38.882H75.5197V37.8882H77.1398V37.764ZM76.5167 36.2733C76.6413 36.2733 76.6413 36.2733 76.5167 36.2733C76.6413 36.3975 76.6413 36.3975 76.5167 36.3975V36.5218H77.2644V36.7702H76.8905V37.2671H77.389V37.5156H75.5197V37.2671H75.8936C75.8936 37.1429 75.7689 37.0187 75.7689 36.8944H75.5197V36.646H76.2674V36.2733H76.5167ZM76.7659 38.0124H76.0182V38.5093H76.8905V38.0124H76.7659ZM76.6413 37.2671L76.7659 36.8944H76.2674C76.2674 37.0187 76.392 37.1429 76.392 37.2671H76.6413Z" fill="white"/>
<path d="M80.2553 36.2733C80.3799 36.3975 80.3799 36.3975 80.2553 36.3975H81.8753V36.8944H81.6261V37.0187H80.8784V37.2671H81.6261V37.5156H80.8784V37.6398H81.8753V37.8882H80.8784C80.8784 37.8882 81.003 37.8882 81.1276 37.8882C81.3768 37.8882 81.6261 38.0124 81.9999 38.0124L81.7507 38.2609C81.6261 38.2609 81.5015 38.2609 81.5015 38.2609V39.3789H80.8784C81.2522 39.5031 81.6261 39.5031 81.9999 39.6274L81.7507 39.8758C81.1276 39.7516 80.6291 39.6274 80.3799 39.5031L80.5045 39.3789H79.7568L79.8814 39.5031C79.8814 39.5031 79.8814 39.5031 79.7568 39.5031C79.2583 39.6274 78.8844 39.7516 78.5106 39.7516H78.2613C78.7598 39.7516 79.1337 39.6274 79.3829 39.5031H78.7598V38.2609C78.6352 38.2609 78.6352 38.2609 78.5106 38.2609L78.1367 38.0124C78.5106 38.0124 78.8844 37.8882 79.0091 37.8882C79.1337 37.8882 79.1337 37.8882 79.1337 37.8882H78.1367V37.6398H79.1337V37.5156H78.5106V37.2671H79.1337V37.1429H78.386V37.0187H78.1367V36.5218H79.7568V36.2733H80.2553ZM79.2583 36.7702V36.646H78.6352V36.7702H79.2583ZM81.003 38.5093V38.3851H79.0091V38.5093H81.003ZM81.003 38.882V38.7578H79.0091V38.882H81.003ZM81.003 39.0062H79.0091V39.1305H81.003V39.0062ZM80.6291 38.0124C80.5045 38.0124 80.3799 37.8882 80.3799 37.8882H79.7568C79.6322 38.0124 79.6322 38.0124 79.5075 38.0124H80.6291ZM79.6322 36.7702H80.5045V36.646H79.6322V36.7702ZM80.5045 37.1429H79.6322V37.2671H80.5045V37.1429ZM80.5045 37.6398V37.5156H79.6322V37.6398H80.5045ZM80.7537 36.7702H81.3768V36.646H80.7537V36.7702Z" fill="white"/>
</svg>
