<svg width="376" height="173" viewBox="0 0 376 173" fill="none" xmlns="http://www.w3.org/2000/svg">
<g filter="url(#filter0_d_42:57)">
<path d="M84.6211 102.635C84.0152 102.635 83.6113 102.227 83.4093 101.819L57.153 25.8981L30.8966 101.819C30.6946 102.431 29.8868 102.839 29.2808 102.635C28.6749 102.431 28.271 101.615 28.4729 101.003L55.5372 23.0408C55.7392 22.2245 56.547 21.8163 57.3549 21.8163C58.1628 21.8163 58.7687 22.2245 59.1727 23.0408L86.0349 101.003C86.2369 101.615 85.833 102.431 85.2271 102.635C85.0251 102.635 84.8231 102.635 84.6211 102.635Z" fill="#F7F8F8" stroke="white" stroke-width="0.1823" stroke-miterlimit="10"/>
<path d="M81.3895 92.6351H32.9162C32.1084 92.6351 31.5024 92.0228 31.5024 91.2065C31.5024 90.3901 32.1084 89.7778 32.9162 89.7778H81.3895C82.1974 89.7778 82.8033 90.3901 82.8033 91.2065C82.6013 92.0228 81.9954 92.6351 81.3895 92.6351Z" fill="#F7F8F8" stroke="white" stroke-width="0.1823" stroke-miterlimit="10"/>
<path d="M122.39 102.635C104.415 102.635 89.6709 84.2675 89.6709 61.8177C89.6709 39.368 104.213 21 122.39 21C134.711 21 145.819 29.5718 151.474 43.0416C151.676 43.6539 151.474 44.4702 150.666 44.8784C150.061 45.0825 149.253 44.8784 148.849 44.0621C143.597 31.4086 133.499 23.6532 122.188 23.6532C105.627 23.6532 92.0946 40.7966 92.0946 61.8177C92.0946 82.8389 105.627 99.9823 122.188 99.9823C133.297 99.9823 143.597 92.227 148.849 79.5735C149.051 78.9612 149.859 78.553 150.666 78.7571C151.272 78.9612 151.676 79.7776 151.474 80.5939C145.819 94.2679 134.711 102.635 122.39 102.635Z" fill="#F7F8F8" stroke="white" stroke-width="0.1823" stroke-miterlimit="10"/>
<path d="M137.337 73.0426C136.933 73.0426 136.327 72.8386 135.923 72.6345C135.115 72.2263 134.711 71.4099 134.711 70.3895V53.2461C134.711 52.2256 135.115 51.4093 135.923 51.0011C136.731 50.5929 137.741 50.5929 138.548 51.0011L154.302 59.5728C155.11 59.981 155.716 61.0014 155.716 61.8178C155.716 62.6341 155.11 63.6546 154.302 64.0627L138.548 72.6345C138.144 73.0427 137.741 73.0426 137.337 73.0426ZM137.337 53.4502V70.5936L152.888 62.0219L137.337 53.4502Z" fill="#F7F8F8" stroke="white" stroke-width="0.1823" stroke-miterlimit="10"/>
<path d="M203.988 23.8573H172.48C171.672 23.8573 171.066 23.245 171.066 22.4286C171.066 21.6123 171.672 21 172.48 21H203.988C204.796 21 205.402 21.6123 205.402 22.4286C205.402 23.245 204.796 23.8573 203.988 23.8573Z" fill="#F7F8F8" stroke="white" stroke-width="0.1823" stroke-miterlimit="10"/>
<path d="M203.986 102.635H172.478C171.67 102.635 171.064 102.023 171.064 101.207C171.064 100.39 171.67 99.7781 172.478 99.7781H203.986C204.794 99.7781 205.4 100.39 205.4 101.207C205.4 102.023 204.794 102.635 203.986 102.635Z" fill="#F7F8F8" stroke="white" stroke-width="0.1823" stroke-miterlimit="10"/>
<path d="M188.232 70.5935C183.587 70.5935 179.749 66.7158 179.749 62.0218C179.749 57.3277 183.587 53.4501 188.232 53.4501C192.877 53.4501 196.715 57.3277 196.715 62.0218C196.917 66.7158 193.079 70.5935 188.232 70.5935ZM188.232 55.8991C185 55.8991 182.375 58.5522 182.375 61.8177C182.375 65.0831 185 67.7363 188.232 67.7363C191.463 67.7363 194.089 65.0831 194.089 61.8177C194.089 58.5522 191.463 55.8991 188.232 55.8991Z" fill="#F7F8F8" stroke="white" stroke-width="0.1823" stroke-miterlimit="10"/>
<path d="M194.091 102.635C193.485 102.635 192.879 102.227 192.879 101.411L180.962 22.8368C180.76 22.0205 181.366 21.4082 181.972 21.4082C182.78 21.2041 183.386 21.8164 183.386 22.4286L195.303 101.003C195.505 101.819 195.101 102.635 194.091 102.635C194.293 102.635 194.293 102.635 194.091 102.635Z" fill="#F7F8F8"/>
<path d="M194.091 102.635C193.485 102.635 192.879 102.227 192.879 101.411L180.962 22.8368C180.76 22.0205 181.366 21.4082 181.972 21.4082C182.78 21.2041 183.386 21.8164 183.386 22.4286L195.303 101.003C195.505 101.819 195.101 102.635 194.091 102.635ZM194.091 102.635C194.293 102.635 194.293 102.635 194.091 102.635Z" stroke="white" stroke-width="0.1823" stroke-miterlimit="10"/>
<path d="M182.375 102.635C182.173 102.635 182.173 102.635 182.375 102.635C181.365 102.431 180.961 101.819 181.163 101.003L193.079 22.4287C193.281 21.6123 193.887 21.2041 194.493 21.4082C195.301 21.6123 195.705 22.2246 195.503 22.8369L183.586 101.411C183.586 102.227 182.981 102.635 182.375 102.635Z" fill="#F7F8F8" stroke="white" stroke-width="0.1823" stroke-miterlimit="10"/>
<path d="M251.652 102.839L220.952 82.0225V47.3274L247.612 21.8163C248.218 21.4081 249.026 21.4081 249.43 21.8163C249.834 22.4286 249.834 23.2449 249.43 23.6531L223.578 48.5519V80.5938L251.248 99.37L278.11 73.4507C278.716 73.0425 279.524 73.0425 279.928 73.4507C280.332 74.063 280.332 74.8793 279.928 75.2875L251.652 102.839Z" fill="#F7F8F8" stroke="white" stroke-width="0.1823" stroke-miterlimit="10"/>
<path d="M222.571 82.8388C222.167 82.8388 221.965 82.6347 221.561 82.4306C221.157 81.8183 221.157 81.002 221.561 80.5938L269.832 34.2657C270.438 33.8575 271.246 33.8575 271.65 34.2657C272.054 34.8779 272.054 35.6943 271.65 36.1025L223.379 82.4306C223.379 82.6347 222.975 82.8388 222.571 82.8388Z" fill="#F7F8F8" stroke="white" stroke-width="0.1823" stroke-miterlimit="10"/>
<path d="M314.061 45.2865C311.233 45.2865 308.81 42.8374 308.81 39.9802C308.81 37.123 311.233 34.6739 314.061 34.6739C316.888 34.6739 319.312 37.123 319.312 39.9802C319.312 42.8374 316.888 45.2865 314.061 45.2865ZM314.061 37.327C312.647 37.327 311.435 38.5516 311.435 39.9802C311.435 41.4088 312.647 42.6333 314.061 42.6333C315.475 42.6333 316.686 41.4088 316.686 39.9802C316.686 38.5516 315.475 37.327 314.061 37.327Z" fill="#F7F8F8" stroke="white" stroke-width="0.1823" stroke-miterlimit="10"/>
<path d="M318.505 102.635C317.899 102.635 317.091 102.635 316.283 102.431C313.455 101.819 310.628 100.595 308.204 98.7577L292.248 86.5124C291.642 86.1042 291.642 85.2879 292.046 84.6756C292.45 84.0633 293.258 84.0633 293.864 84.4715L309.82 96.7168C311.839 98.3495 314.263 99.37 316.687 99.7782C317.293 99.9822 317.899 99.9823 318.505 99.9823C326.987 99.9823 333.854 93.4514 333.854 85.492C333.854 84.4715 333.652 83.4511 333.248 82.2265C332.239 79.1652 330.219 76.308 327.189 74.063L300.529 53.8582C296.086 50.5928 293.46 45.6947 293.46 40.5925C293.46 40.1843 293.46 39.9802 293.46 39.572C293.662 29.3676 302.145 21.204 313.051 21.204H313.253C316.889 21.204 320.524 22.4286 323.352 24.6736L335.672 34.0617L334.056 36.1025L321.736 26.7145C319.312 24.8777 316.081 23.6531 313.051 23.6531H312.849C303.559 23.6531 296.086 30.5921 295.884 39.3679C295.884 39.572 295.884 39.9802 295.884 40.1843C295.884 44.4702 298.105 48.552 301.943 51.4092L328.603 71.614C332.037 74.2671 334.46 77.5325 335.47 81.2061C335.874 82.6347 336.076 84.0633 336.076 85.2879C336.48 95.0841 328.401 102.635 318.505 102.635Z" fill="#F7F8F8" stroke="white" stroke-width="0.1823" stroke-miterlimit="10"/>
<path d="M318.1 85.0839C317.898 85.0839 317.494 85.0839 317.292 84.8798L302.952 74.063C302.346 73.6548 302.346 72.8385 302.75 72.2262C303.154 71.614 303.962 71.614 304.568 72.0221L318.908 82.8389C319.514 83.2471 319.514 84.0634 319.11 84.6757C318.706 84.8798 318.504 85.0839 318.1 85.0839Z" fill="#F7F8F8" stroke="white" stroke-width="0.1823" stroke-miterlimit="10"/>
<path d="M26.8572 62.4299H21.4039C21.202 62.4299 21 62.2258 21 62.0217C21 61.8176 21.202 61.6136 21.4039 61.6136H26.8572C27.0591 61.6136 27.2611 61.8176 27.2611 62.0217C27.2611 62.2258 27.0591 62.4299 26.8572 62.4299Z" fill="#F7F8F8" stroke="white" stroke-width="0.1823" stroke-miterlimit="10"/>
<path d="M339.307 62.4299H328.804C328.602 62.4299 328.4 62.2258 328.4 62.0217C328.4 61.8176 328.602 61.6136 328.804 61.6136H339.307C339.509 61.6136 339.711 61.8176 339.711 62.0217C339.913 62.2258 339.711 62.4299 339.307 62.4299ZM318.504 62.4299H308.001C307.799 62.4299 307.597 62.2258 307.597 62.0217C307.597 61.8176 307.799 61.6136 308.001 61.6136H318.504C318.706 61.6136 318.908 61.8176 318.908 62.0217C318.908 62.2258 318.706 62.4299 318.504 62.4299ZM297.701 62.4299H287.198C286.996 62.4299 286.794 62.2258 286.794 62.0217C286.794 61.8176 286.996 61.6136 287.198 61.6136H297.701C297.903 61.6136 298.105 61.8176 298.105 62.0217C298.105 62.2258 297.903 62.4299 297.701 62.4299ZM276.898 62.4299H266.395C266.193 62.4299 265.991 62.2258 265.991 62.0217C265.991 61.8176 266.193 61.6136 266.395 61.6136H276.898C277.1 61.6136 277.302 61.8176 277.302 62.0217C277.302 62.2258 277.1 62.4299 276.898 62.4299ZM255.893 62.4299H245.39C245.188 62.4299 244.986 62.2258 244.986 62.0217C244.986 61.8176 245.188 61.6136 245.39 61.6136H255.893C256.094 61.6136 256.296 61.8176 256.296 62.0217C256.498 62.2258 256.296 62.4299 255.893 62.4299ZM235.089 62.4299H224.789C224.587 62.4299 224.385 62.2258 224.385 62.0217C224.385 61.8176 224.587 61.6136 224.789 61.6136H235.291C235.493 61.6136 235.695 61.8176 235.695 62.0217C235.695 62.2258 235.493 62.4299 235.089 62.4299ZM214.286 62.4299H203.784C203.582 62.4299 203.38 62.2258 203.38 62.0217C203.38 61.8176 203.582 61.6136 203.784 61.6136H214.286C214.488 61.6136 214.69 61.8176 214.69 62.0217C214.892 62.2258 214.488 62.4299 214.286 62.4299ZM193.483 62.4299H182.981C182.779 62.4299 182.577 62.2258 182.577 62.0217C182.577 61.8176 182.779 61.6136 182.981 61.6136H193.483C193.685 61.6136 193.887 61.8176 193.887 62.0217C193.887 62.2258 193.685 62.4299 193.483 62.4299ZM172.68 62.4299H162.178C161.976 62.4299 161.774 62.2258 161.774 62.0217C161.774 61.8176 161.976 61.6136 162.178 61.6136H172.68C172.882 61.6136 173.084 61.8176 173.084 62.0217C173.084 62.2258 172.882 62.4299 172.68 62.4299ZM151.877 62.4299H141.374C141.172 62.4299 140.97 62.2258 140.97 62.0217C140.97 61.8176 141.172 61.6136 141.374 61.6136H151.877C152.079 61.6136 152.281 61.8176 152.281 62.0217C152.281 62.2258 152.079 62.4299 151.877 62.4299ZM130.872 62.4299H120.369C120.167 62.4299 119.965 62.2258 119.965 62.0217C119.965 61.8176 120.167 61.6136 120.369 61.6136H130.872C131.074 61.6136 131.276 61.8176 131.276 62.0217C131.478 62.2258 131.276 62.4299 130.872 62.4299ZM110.069 62.4299H99.5662C99.3642 62.4299 99.1623 62.2258 99.1623 62.0217C99.1623 61.8176 99.3642 61.6136 99.5662 61.6136H110.069C110.271 61.6136 110.473 61.8176 110.473 62.0217C110.675 62.2258 110.473 62.4299 110.069 62.4299ZM89.2656 62.4299H78.7631C78.5611 62.4299 78.3592 62.2258 78.3592 62.0217C78.3592 61.8176 78.5611 61.6136 78.7631 61.6136H89.2656C89.4676 61.6136 89.6696 61.8176 89.6696 62.0217C89.6696 62.2258 89.4676 62.4299 89.2656 62.4299ZM68.4625 62.4299H57.96C57.758 62.4299 57.556 62.2258 57.556 62.0217C57.556 61.8176 57.758 61.6136 57.96 61.6136H68.4625C68.6645 61.6136 68.8665 61.8176 68.8665 62.0217C68.8665 62.2258 68.6645 62.4299 68.4625 62.4299ZM47.6594 62.4299H37.1569C36.9549 62.4299 36.7529 62.2258 36.7529 62.0217C36.7529 61.8176 36.9549 61.6136 37.1569 61.6136H47.6594C47.8614 61.6136 48.0634 61.8176 48.0634 62.0217C48.0634 62.2258 47.8614 62.4299 47.6594 62.4299Z" fill="#F7F8F8" stroke="white" stroke-width="0.1823" stroke-miterlimit="10"/>
<path d="M355.06 62.4299H349.809C349.607 62.4299 349.405 62.2258 349.405 62.0217C349.405 61.8176 349.607 61.6136 349.809 61.6136H355.06C355.262 61.6136 355.464 61.8176 355.464 62.0217C355.464 62.2258 355.262 62.4299 355.06 62.4299Z" fill="#F7F8F8" stroke="white" stroke-width="0.1823" stroke-miterlimit="10"/>
<path d="M70.2807 142.025H66.8472V141.004H75.33V142.025H71.6945V152.025H70.2807V142.025Z" fill="#F7F8F8" stroke="white" stroke-width="0.1823" stroke-miterlimit="10"/>
<path d="M87.8516 141.004H89.2654L90.4772 147.127C90.6792 148.351 90.8811 149.576 91.2851 150.8C91.4871 149.576 91.891 148.351 92.093 147.127L93.7087 141.004H94.9206L96.5363 147.127C96.7383 148.351 97.1423 149.576 97.3442 150.8C97.5462 149.576 97.7482 148.351 97.9501 147.127L99.162 141.004H100.374L97.9501 152.025H96.3344L94.5166 145.086C94.3147 144.27 94.1127 143.453 93.9107 142.637C93.7087 143.453 93.5068 144.27 93.3048 145.086L91.4871 152.025H89.8713L87.8516 141.004Z" fill="#F7F8F8" stroke="white" stroke-width="0.1823" stroke-miterlimit="10"/>
<path d="M114.916 141.004H116.33V152.025H114.916V141.004Z" fill="#F7F8F8" stroke="white" stroke-width="0.1823" stroke-miterlimit="10"/>
<path d="M131.277 141.004H132.691L137.135 148.147L138.346 150.392C138.346 149.372 138.144 148.147 138.144 146.923V141.004H139.356V152.025H137.942L133.499 144.882L132.287 142.637C132.287 143.657 132.489 144.882 132.489 146.106V152.229H131.277V141.004V141.004Z" fill="#F7F8F8" stroke="white" stroke-width="0.1823" stroke-miterlimit="10"/>
<path d="M168.844 150.596L169.854 149.984C170.46 150.8 171.065 151.209 171.873 151.209C173.085 151.209 173.691 150.596 173.691 148.759V141.004H175.105V148.964C175.105 150.8 174.297 152.433 172.075 152.433C170.661 152.229 169.45 151.617 168.844 150.596Z" fill="#F7F8F8" stroke="white" stroke-width="0.1823" stroke-miterlimit="10"/>
<path d="M189.445 146.514C189.445 143.045 191.465 140.8 194.293 140.8C197.12 140.8 199.14 143.045 199.14 146.514C199.14 149.984 197.12 152.229 194.293 152.229C191.465 152.229 189.445 149.984 189.445 146.514ZM197.928 146.514C197.928 143.657 196.514 142.025 194.293 142.025C192.071 142.025 190.657 143.861 190.657 146.514C190.657 149.372 192.071 151.209 194.293 151.209C196.514 151.209 197.928 149.372 197.928 146.514Z" fill="#F7F8F8" stroke="white" stroke-width="0.1823" stroke-miterlimit="10"/>
<path d="M213.683 147.535V141.004H215.096V147.535C215.096 150.188 216.308 151.004 217.924 151.004C219.54 151.004 220.752 150.188 220.752 147.535V141.004H221.963V147.535C221.963 151.004 220.146 152.229 217.924 152.229C215.702 152.229 213.683 151.209 213.683 147.535Z" fill="#F7F8F8" stroke="white" stroke-width="0.1823" stroke-miterlimit="10"/>
<path d="M243.371 152.025L240.544 147.331H238.322V152.025H236.908V141.004H240.544C242.967 141.004 244.583 141.82 244.583 144.065C244.583 145.902 243.573 146.719 241.958 147.127L244.987 152.025H243.371ZM238.322 146.31H240.342C242.159 146.31 243.169 145.698 243.169 144.065C243.169 142.637 242.159 142.025 240.342 142.025H238.322V146.31Z" fill="#F7F8F8" stroke="white" stroke-width="0.1823" stroke-miterlimit="10"/>
<path d="M258.721 141.004H260.135L264.578 148.147L265.79 150.392C265.79 149.372 265.588 148.147 265.588 146.923V141.004H266.8V152.025H265.386L260.942 144.882L259.731 142.637C259.731 143.657 259.933 144.882 259.933 146.106V152.229H258.721V141.004Z" fill="#F7F8F8" stroke="white" stroke-width="0.1823" stroke-miterlimit="10"/>
<path d="M281.948 141.004H288.613V142.025H283.362V145.698H287.805V146.719H283.362V151.004H288.815V152.025H281.948V141.004V141.004Z" fill="#F7F8F8" stroke="white" stroke-width="0.1823" stroke-miterlimit="10"/>
<path d="M304.973 147.739L301.539 141.004H302.953L304.569 144.27C304.973 145.086 305.377 145.902 305.78 146.719C306.184 145.902 306.588 145.086 306.992 144.27L308.608 141.004H310.022L306.588 147.739V152.025H305.377V147.739H304.973Z" fill="#F7F8F8" stroke="white" stroke-width="0.1823" stroke-miterlimit="10"/>
</g>
<defs>
<filter id="filter0_d_42:57" x="0.908691" y="0.908875" width="374.647" height="171.615" filterUnits="userSpaceOnUse" color-interpolation-filters="sRGB">
<feFlood flood-opacity="0" result="BackgroundImageFix"/>
<feColorMatrix in="SourceAlpha" type="matrix" values="0 0 0 0 0 0 0 0 0 0 0 0 0 0 0 0 0 0 127 0" result="hardAlpha"/>
<feOffset/>
<feGaussianBlur stdDeviation="10"/>
<feComposite in2="hardAlpha" operator="out"/>
<feColorMatrix type="matrix" values="0 0 0 0 1 0 0 0 0 0.8705 0 0 0 0 0.5375 0 0 0 1 0"/>
<feBlend mode="normal" in2="BackgroundImageFix" result="effect1_dropShadow_42:57"/>
<feBlend mode="normal" in="SourceGraphic" in2="effect1_dropShadow_42:57" result="shape"/>
</filter>
</defs>
</svg>
