<svg width="34" height="34" viewBox="0 0 34 34" fill="none" xmlns="http://www.w3.org/2000/svg">
<path d="M16.8155 33.2476C7.97962 33.2476 0.81543 26.0834 0.81543 17.2476C0.81543 8.41175 7.97962 1.24756 16.8155 1.24756C25.6513 1.24756 32.8155 8.41175 32.8155 17.2476C32.9349 26.0834 25.6513 33.2476 16.8155 33.2476ZM16.8155 1.84457C8.33783 1.84457 1.41245 8.76996 1.41245 17.2476C1.41245 25.7252 8.33783 32.6506 16.8155 32.6506C25.2931 32.6506 32.2185 25.7252 32.2185 17.2476C32.2185 8.76996 25.2931 1.84457 16.8155 1.84457Z" fill="white" stroke="white" stroke-width="0.824773" stroke-miterlimit="10"/>
<path d="M22.3085 24.4119C22.1891 24.4119 22.0697 24.2925 22.0697 24.2925L16.816 9.48647L11.5622 24.2925C11.5622 24.4119 11.3234 24.5313 11.204 24.4119C11.0846 24.4119 10.9652 24.1731 11.0846 24.0537L16.4578 8.77005C16.4578 8.65065 16.6966 8.53125 16.816 8.53125C16.9354 8.53125 17.0548 8.65065 17.1742 8.77005L22.5473 24.0537C22.5473 24.1731 22.5473 24.4119 22.3085 24.4119Z" fill="white" stroke="white" stroke-width="0.706748" stroke-miterlimit="10"/>
<path d="M16.8156 8.53127C16.935 8.53127 17.0544 8.65067 17.1738 8.77007L22.547 24.0537C22.547 24.1731 22.5469 24.2925 22.4275 24.4119C22.4275 24.4119 22.4275 24.4119 22.3081 24.4119C22.1887 24.4119 22.0693 24.2925 22.0693 24.2925L16.8156 9.4865L11.5619 24.2925C11.5619 24.4119 11.4425 24.4119 11.3231 24.4119C11.3231 24.4119 11.3231 24.4119 11.2037 24.4119C11.0842 24.4119 10.9648 24.1731 11.0842 24.0537L16.4574 8.77007C16.5768 8.65067 16.6962 8.53127 16.8156 8.53127ZM16.8156 8.41187C16.5768 8.41187 16.4574 8.53127 16.338 8.77007L10.9648 24.0537C10.9648 24.1731 10.9648 24.2925 10.9648 24.4119C10.9648 24.5313 11.0842 24.5313 11.2037 24.6507H11.3231C11.4425 24.6507 11.6813 24.5313 11.6813 24.4119L16.6962 9.96411L21.7111 24.4119C21.7111 24.5313 21.9499 24.6507 22.0693 24.6507H22.1887C22.4276 24.5313 22.5469 24.2925 22.4275 24.1731L17.0544 8.88948C17.2932 8.53127 17.0544 8.41187 16.8156 8.41187Z" fill="white" stroke="white" stroke-width="0.706748" stroke-miterlimit="10"/>
<path d="M21.5918 22.501H12.0396C11.9202 22.501 11.8008 22.3816 11.8008 22.2622C11.8008 22.1428 11.9202 22.0234 12.0396 22.0234H21.5918C21.7112 22.0234 21.8306 22.1428 21.8306 22.2622C21.8306 22.3816 21.7112 22.501 21.5918 22.501Z" fill="white" stroke="white" stroke-width="0.706748" stroke-miterlimit="10"/>
<path d="M21.5911 21.9043C21.7105 21.9043 21.8299 22.0237 21.8299 22.1431C21.8299 22.2625 21.7105 22.3819 21.5911 22.3819H12.0389C11.9195 22.3819 11.8001 22.2625 11.8001 22.1431C11.8001 22.0237 11.9195 21.9043 12.0389 21.9043H21.5911ZM21.5911 21.7849H12.0389C11.8001 21.7849 11.6807 22.0237 11.6807 22.1431C11.6807 22.3819 11.9195 22.5013 12.0389 22.5013H21.5911C21.8299 22.5013 21.9493 22.2625 21.9493 22.1431C22.0687 22.0237 21.8299 21.7849 21.5911 21.7849Z" fill="white" stroke="white" stroke-width="0.706748" stroke-miterlimit="10"/>
</svg>
