<svg width="38" height="39" viewBox="0 0 38 39" fill="none" xmlns="http://www.w3.org/2000/svg">
<path d="M18.9316 37.5018C8.85271 37.5018 0.680664 29.3298 0.680664 19.2509C0.680664 9.17204 8.85271 1 18.9316 1C29.0104 1 37.1825 9.17204 37.1825 19.2509C37.3187 29.3298 29.1466 37.5018 18.9316 37.5018ZM18.9316 1.681C9.26131 1.681 1.49787 9.44444 1.49787 19.1147C1.49787 28.7849 9.39751 36.6846 19.0678 36.6846C28.738 36.6846 36.6377 28.7849 36.6377 19.1147C36.5014 9.44444 28.6018 1.681 18.9316 1.681Z" fill="white" stroke="white" stroke-miterlimit="10"/>
<path d="M26.2861 9.85314C26.1499 9.71694 25.8775 9.71694 25.6051 9.98934L18.9312 20.4768L12.2574 9.98934C12.1212 9.71694 11.8488 9.71694 11.5764 9.85314C11.4402 9.98934 11.304 10.2617 11.4402 10.5341L18.3864 21.4302V29.6022C18.3864 29.8746 18.6588 30.147 18.9312 30.147C19.2036 30.147 19.476 29.8746 19.476 29.6022V21.4302L26.4223 10.5341C26.5585 10.2617 26.5585 9.98934 26.2861 9.85314Z" fill="white" stroke="white" stroke-miterlimit="10"/>
</svg>
