<svg width="34" height="34" viewBox="0 0 34 34" fill="none" xmlns="http://www.w3.org/2000/svg">
<path d="M16.57 32.7542C7.7233 32.7542 0.519531 25.5828 0.519531 16.7758C0.519531 7.96877 7.7233 0.797363 16.57 0.797363C25.4168 0.797363 32.6205 7.96877 32.6205 16.7758C32.6205 25.5828 25.4168 32.7542 16.57 32.7542ZM16.57 1.42643C8.10244 1.42643 1.15144 8.34622 1.15144 16.7758C1.15144 25.2053 8.10244 32.1251 16.57 32.1251C25.0376 32.1251 31.9886 25.2053 31.9886 16.7758C31.9886 8.34622 25.0376 1.42643 16.57 1.42643Z" fill="white" stroke="white" stroke-width="0.848943" stroke-miterlimit="10"/>
<path d="M17.0754 16.7759L23.1418 8.59794C23.2681 8.34631 23.2681 8.09469 23.0154 7.96887C22.7626 7.84306 22.5098 7.84306 22.3835 8.09469L16.5699 16.021L10.7563 8.09469C10.63 7.84306 10.3772 7.84306 10.1244 7.96887C9.87167 8.09469 9.87167 8.34631 9.99805 8.59794L16.0644 16.7759L9.99805 24.9538C9.87167 25.2054 9.87167 25.457 10.1244 25.5829C10.2508 25.5829 10.2508 25.7087 10.3772 25.7087C10.5036 25.7087 10.63 25.5829 10.7563 25.5829L16.5699 17.6566L22.3835 25.5829C22.5098 25.7087 22.6362 25.7087 22.7626 25.7087C22.889 25.7087 22.889 25.7087 23.0154 25.5829C23.2681 25.457 23.2681 25.2054 23.1418 24.9538L17.0754 16.7759Z" fill="white" stroke="white" stroke-width="0.848943" stroke-miterlimit="10"/>
</svg>
