<svg width="32" height="32" viewBox="0 0 32 32" fill="none" xmlns="http://www.w3.org/2000/svg">
<path d="M16.297 31.2781C7.98422 31.2781 1.24414 24.538 1.24414 16.2252C1.24414 7.91245 7.98422 1.17236 16.297 1.17236C24.6098 1.17236 31.3498 7.91245 31.3498 16.2252C31.4622 24.538 24.7221 31.2781 16.297 31.2781ZM16.297 1.73404C8.32123 1.73404 1.91815 8.13712 1.91815 16.1129C1.91815 24.0886 8.43356 30.6041 16.4093 30.6041C24.3851 30.6041 30.9005 24.0886 30.9005 16.1129C30.7882 8.13712 24.2728 1.73404 16.297 1.73404Z" fill="white" stroke="white" stroke-width="0.824773" stroke-miterlimit="10"/>
<path d="M22.3633 8.47393C22.2509 8.3616 22.0263 8.3616 21.8016 8.58627L16.2972 17.236L10.7928 8.58627C10.6805 8.3616 10.4558 8.3616 10.2311 8.47393C10.1188 8.58627 10.0065 8.81094 10.1188 9.03561L15.8479 18.0224V24.7625C15.8479 24.9871 16.0725 25.2118 16.2972 25.2118C16.5219 25.2118 16.7465 24.9871 16.7465 24.7625V18.0224L22.4756 9.03561C22.588 8.81094 22.588 8.58627 22.3633 8.47393Z" fill="white" stroke="white" stroke-width="0.824773" stroke-miterlimit="10"/>
</svg>
