<svg width="34" height="34" viewBox="0 0 34 34" fill="none" xmlns="http://www.w3.org/2000/svg">
<path d="M17.2434 33.1709C8.40799 33.1709 1.24414 26.007 1.24414 17.1716C1.24414 8.33621 8.40799 1.17236 17.2434 1.17236C26.0788 1.17236 33.2427 8.33621 33.2427 17.1716C33.3621 26.007 26.1982 33.1709 17.2434 33.1709ZM17.2434 1.76935C8.76618 1.76935 1.96053 8.57501 1.96053 17.0522C1.96053 25.5295 8.88558 32.4545 17.3628 32.4545C25.84 32.4545 32.7651 25.5295 32.7651 17.0522C32.6457 8.57501 25.7206 1.76935 17.2434 1.76935Z" fill="white" stroke="white" stroke-width="0.824773" stroke-miterlimit="10"/>
<path d="M23.6907 8.93292C23.5713 8.81352 23.3325 8.81352 23.0937 9.05232L17.2433 18.2459L11.3928 9.05232C11.2734 8.81352 11.0346 8.81352 10.7958 8.93292C10.6764 9.05232 10.557 9.29111 10.6764 9.52991L16.7657 19.0817V26.2456C16.7657 26.4844 17.0045 26.7231 17.2433 26.7231C17.4821 26.7231 17.7209 26.4844 17.7209 26.2456V19.0817L23.8101 9.52991C23.9295 9.29111 23.9295 9.05232 23.6907 8.93292Z" fill="white" stroke="white" stroke-width="0.824773" stroke-miterlimit="10"/>
</svg>
