<svg width="40" height="40" viewBox="0 0 40 40" fill="none" xmlns="http://www.w3.org/2000/svg">
<path d="M19.9065 38.6431C9.48557 38.6431 1 30.1956 1 19.8215C1 9.44746 9.48557 1 19.9065 1C30.3273 1 38.8129 9.44746 38.8129 19.8215C38.8129 30.1956 30.3273 38.6431 19.9065 38.6431ZM19.9065 1.74101C9.93218 1.74101 1.74435 9.89207 1.74435 19.8215C1.74435 29.751 9.93218 37.9021 19.9065 37.9021C29.8807 37.9021 38.0686 29.751 38.0686 19.8215C38.0686 9.89207 29.8807 1.74101 19.9065 1.74101Z" fill="white" stroke="white" stroke-miterlimit="10"/>
<path d="M20.5019 19.8215L27.6476 10.1884C27.7965 9.89205 27.7965 9.59565 27.4987 9.44744C27.201 9.29924 26.9033 9.29924 26.7544 9.59565L19.9064 18.9323L13.0584 9.59565C12.9095 9.29924 12.6118 9.29924 12.314 9.44744C12.0163 9.59565 12.0163 9.89205 12.1652 10.1884L19.3109 19.8215L12.1652 29.4546C12.0163 29.751 12.0163 30.0474 12.314 30.1956C12.4629 30.1956 12.4629 30.3438 12.6118 30.3438C12.7606 30.3438 12.9095 30.1956 13.0584 30.1956L19.9064 20.8589L26.7544 30.1956C26.9033 30.3438 27.0521 30.3438 27.201 30.3438C27.3499 30.3438 27.3499 30.3438 27.4987 30.1956C27.7965 30.0474 27.7965 29.751 27.6476 29.4546L20.5019 19.8215Z" fill="white" stroke="white" stroke-miterlimit="10"/>
</svg>
