<svg width="41" height="41" viewBox="0 0 41 41" fill="none" xmlns="http://www.w3.org/2000/svg">
<path d="M20.3993 39.7986C9.68625 39.7986 1 31.1123 1 20.3993C1 9.68625 9.68625 1 20.3993 1C31.1123 1 39.7986 9.68625 39.7986 20.3993C39.9434 31.1123 31.1123 39.7986 20.3993 39.7986ZM20.3993 1.72385C10.1206 1.72385 1.72385 10.1206 1.72385 20.3993C1.72385 30.678 10.1206 39.0747 20.3993 39.0747C30.678 39.0747 39.0747 30.678 39.0747 20.3993C39.0747 10.1206 30.678 1.72385 20.3993 1.72385Z" fill="white" stroke="white" stroke-miterlimit="10"/>
<path d="M27.0591 29.0856C26.9143 29.0856 26.7695 28.9408 26.7695 28.9408L20.3996 10.9892L14.0297 28.9408C14.0297 29.0856 13.7401 29.2304 13.5954 29.0856C13.4506 29.0856 13.3058 28.796 13.4506 28.6513L19.9653 10.1206C19.9653 9.97582 20.2548 9.83105 20.3996 9.83105C20.5444 9.83105 20.6891 9.97582 20.8339 10.1206L27.3486 28.6513C27.3486 28.796 27.3486 29.0856 27.0591 29.0856Z" fill="white" stroke="white" stroke-width="0.8569" stroke-miterlimit="10"/>
<path d="M20.3994 9.83081C20.5442 9.83081 20.689 9.97558 20.8338 10.1203L27.3484 28.651C27.3484 28.7958 27.3484 28.9406 27.2037 29.0853C27.2037 29.0853 27.2037 29.0853 27.0589 29.0853C26.9141 29.0853 26.7694 28.9406 26.7694 28.9406L20.3994 10.989L14.0295 28.9406C14.0295 29.0853 13.8847 29.0853 13.74 29.0853C13.74 29.0853 13.74 29.0853 13.5952 29.0853C13.4504 29.0853 13.3057 28.7958 13.4504 28.651L19.9651 10.1203C20.1099 9.97558 20.2547 9.83081 20.3994 9.83081ZM20.3994 9.68604C20.1099 9.68604 19.9651 9.8308 19.8204 10.1203L13.3057 28.651C13.3057 28.7958 13.3057 28.9406 13.3057 29.0853C13.3057 29.2301 13.4504 29.2301 13.5952 29.3749H13.74C13.8847 29.3749 14.1743 29.2301 14.1743 29.0853L20.2547 11.5681L26.335 29.0853C26.335 29.2301 26.6246 29.3749 26.7694 29.3749H26.9141C27.2037 29.2301 27.3484 28.9406 27.2037 28.7958L20.689 10.2651C20.9785 9.83081 20.689 9.68604 20.3994 9.68604Z" fill="white" stroke="white" stroke-width="0.8569" stroke-miterlimit="10"/>
<path d="M26.1896 26.7685H14.6079C14.4631 26.7685 14.3184 26.6238 14.3184 26.479C14.3184 26.3342 14.4631 26.1895 14.6079 26.1895H26.1896C26.3343 26.1895 26.4791 26.3342 26.4791 26.479C26.4791 26.6238 26.3343 26.7685 26.1896 26.7685Z" fill="white" stroke="white" stroke-width="0.8569" stroke-miterlimit="10"/>
<path d="M26.1898 26.0452C26.3346 26.0452 26.4794 26.1899 26.4794 26.3347C26.4794 26.4795 26.3346 26.6242 26.1898 26.6242H14.6081C14.4634 26.6242 14.3186 26.4795 14.3186 26.3347C14.3186 26.1899 14.4634 26.0452 14.6081 26.0452H26.1898ZM26.1898 25.9004H14.6081C14.3186 25.9004 14.1738 26.1899 14.1738 26.3347C14.1738 26.6242 14.4634 26.769 14.6081 26.769H26.1898C26.4794 26.769 26.6241 26.4795 26.6241 26.3347C26.7689 26.1899 26.4794 25.9004 26.1898 25.9004Z" fill="white" stroke="white" stroke-width="0.8569" stroke-miterlimit="10"/>
</svg>
