<svg width="21" height="891" viewBox="0 0 21 891" fill="none" xmlns="http://www.w3.org/2000/svg">
<path d="M10 14L9.99999 301" stroke="white"/>
<path d="M10 590L9.99999 877" stroke="white"/>
<path d="M11.73 565.575L10.596 565.267C9.518 564.959 8.342 564.651 7.208 564.385L7.208 564.329C8.328 564.021 9.518 563.741 10.596 563.419L11.73 563.111L11.73 565.575ZM16 561.935L16 559.765L5.64 563.097L5.64 565.533L16 568.851L16 566.751L13.34 566.023L13.34 562.663L16 561.935ZM16.196 548.889C16.196 547.545 15.664 546.439 14.67 545.585L13.382 546.677C13.984 547.237 14.404 547.937 14.404 548.819C14.404 550.457 13.046 551.521 10.792 551.521C8.566 551.521 7.222 550.345 7.222 548.777C7.222 547.993 7.586 547.391 8.09 546.873L6.774 545.781C6.074 546.453 5.444 547.503 5.444 548.819C5.444 551.437 7.446 553.635 10.862 553.635C14.32 553.635 16.196 551.507 16.196 548.889ZM16 538.315L16 536.243L5.64 536.243L5.64 538.315L16 538.315ZM16 528.094L16 521.584L14.264 521.584L14.264 526.022L11.492 526.022L11.492 522.382L9.756 522.382L9.756 526.022L7.362 526.022L7.362 521.738L5.64 521.738L5.64 528.094L16 528.094ZM16.196 510.787C16.196 508.393 14.754 506.979 13.06 506.979C11.562 506.979 10.764 507.805 10.246 509.065L9.672 510.423C9.322 511.305 9.056 512.047 8.314 512.047C7.628 512.047 7.222 511.459 7.222 510.549C7.222 509.695 7.53 509.009 8.076 508.351L6.774 507.301C5.92 508.141 5.444 509.345 5.444 510.549C5.444 512.649 6.746 514.133 8.44 514.133C9.952 514.133 10.792 513.083 11.226 512.033L11.814 510.647C12.206 509.723 12.444 509.093 13.214 509.093C13.942 509.093 14.404 509.667 14.404 510.745C14.404 511.655 13.942 512.635 13.256 513.377L14.684 514.567C15.65 513.559 16.196 512.173 16.196 510.787ZM12.724 499.873L12.724 496.051L11.254 496.051L11.254 499.873L12.724 499.873ZM16 487.293L16 485.221L7.362 485.221L7.362 482.281L5.64 482.281L5.64 490.205L7.362 490.205L7.362 487.293L16 487.293ZM16 474.021L16 471.487L10.876 470.353C10.064 470.185 9.266 470.045 8.482 469.905L8.482 469.849C9.266 469.723 10.064 469.569 10.876 469.401L16 468.239L16 465.663L5.64 463.745L5.64 465.719L10.694 466.531C11.772 466.685 12.878 466.839 13.998 466.993L13.998 467.063C12.878 467.287 11.758 467.497 10.694 467.721L5.64 468.925L5.64 470.689L10.694 471.893C11.772 472.117 12.892 472.341 13.998 472.551L13.998 472.607C12.892 472.761 11.786 472.929 10.694 473.083L5.64 473.909L5.64 476.023L16 474.021ZM16 456.59L16 454.518L5.63999 454.518L5.63999 456.59L16 456.59ZM16 446.369L16 444.409L11.842 444.409C10.652 444.409 9.34999 444.563 8.22999 444.661L8.22999 444.591L10.456 443.541L16 440.545L16 438.445L5.63999 438.445L5.63999 440.405L9.76999 440.405C10.946 440.405 12.318 440.251 13.396 440.139L13.396 440.209L11.156 441.245L5.63999 444.255L5.63999 446.369L16 446.369ZM16.196 419.257C16.196 417.031 14.6 416.051 12.654 416.051L5.63999 416.051L5.63999 418.123L12.486 418.123C13.914 418.123 14.404 418.599 14.404 419.509C14.404 420.097 14.082 420.643 13.326 421.049L14.376 422.477C15.58 421.777 16.196 420.769 16.196 419.257ZM16.196 403.838C16.196 401.094 14.138 399.204 10.778 399.204C7.41799 399.204 5.44399 401.094 5.44399 403.838C5.44399 406.582 7.40399 408.472 10.778 408.472C14.138 408.472 16.196 406.582 16.196 403.838ZM14.404 403.838C14.404 405.378 12.99 406.358 10.778 406.358C8.55199 406.358 7.22199 405.378 7.22199 403.838C7.22199 402.298 8.55199 401.318 10.778 401.318C12.99 401.318 14.404 402.298 14.404 403.838ZM16.196 387.605C16.196 385.071 14.782 383.601 11.338 383.601L5.63999 383.601L5.63999 385.589L11.52 385.589C13.676 385.589 14.404 386.373 14.404 387.605C14.404 388.823 13.676 389.565 11.52 389.565L5.63999 389.565L5.63999 391.637L11.338 391.637C14.782 391.637 16.196 390.125 16.196 387.605ZM7.27799 373.436L7.27799 372.092C7.27799 370.762 7.65599 370.034 8.77599 370.034C9.88199 370.034 10.442 370.762 10.442 372.092L10.442 373.436L7.27799 373.436ZM16 367.556L11.758 369.978C11.296 368.788 10.33 368.004 8.77599 368.004C6.39599 368.004 5.63999 369.726 5.63999 371.896L5.63999 375.508L16 375.508L16 373.436L12.08 373.436L12.08 371.994L16 369.866L16 367.556ZM16 360.365L16 358.405L11.842 358.405C10.652 358.405 9.34999 358.559 8.22999 358.657L8.22999 358.587L10.456 357.537L16 354.541L16 352.441L5.63999 352.441L5.63999 354.401L9.76999 354.401C10.946 354.401 12.318 354.247 13.396 354.135L13.396 354.205L11.156 355.241L5.63999 358.251L5.63999 360.365L16 360.365ZM16 344.279L16 337.769L14.264 337.769L14.264 342.207L11.492 342.207L11.492 338.567L9.75599 338.567L9.75599 342.207L7.36199 342.207L7.36199 337.923L5.63999 337.923L5.63999 344.279L16 344.279ZM16 328.315L16 326.243L12.206 326.243L5.63999 323.121L5.63999 325.277L8.15999 326.313C8.92999 326.607 9.65799 326.915 10.456 327.237L10.456 327.293C9.65799 327.615 8.92999 327.895 8.15999 328.189L5.63999 329.225L5.63999 331.423L12.206 328.315L16 328.315Z" fill="white"/>
<circle cx="10" cy="5" r="4.5" stroke="white"/>
<circle cx="10" cy="886" r="4.5" stroke="white"/>
</svg>
